<svg width="14" height="14" viewBox="0 0 14 14" fill="none" xmlns="http://www.w3.org/2000/svg">
<path fill-rule="evenodd" clip-rule="evenodd" d="M8.00334 1.16699C8.00334 0.614707 7.55563 0.166992 7.00334 0.166992C6.45106 0.166992 6.00334 0.614707 6.00334 1.16699V6.00033H1.00684C0.454551 6.00033 0.00683594 6.44804 0.00683594 7.00033C0.00683594 7.55261 0.454551 8.00033 1.00684 8.00033H6.00334V12.8337C6.00334 13.3859 6.45106 13.8337 7.00334 13.8337C7.55563 13.8337 8.00334 13.3859 8.00334 12.8337V8.00033H12.9998C13.5521 8.00033 13.9998 7.55261 13.9998 7.00033C13.9998 6.44804 13.5521 6.00033 12.9998 6.00033H8.00334V1.16699Z" fill="#FEFEFE"/>
</svg>
