<svg width="14" height="11" viewBox="0 0 14 11" fill="none" xmlns="http://www.w3.org/2000/svg">
<path d="M6.97732 0.999944C7.23261 0.999878 7.48472 1.05664 7.71535 1.16612C7.94598 1.2756 8.14934 1.43504 8.31069 1.63289L12.5477 6.71051C12.7953 7.01623 12.9521 7.38537 13.0001 7.77586C13.0481 8.16634 12.9855 8.56247 12.8194 8.9191C12.6847 9.22899 12.4637 9.49358 12.1828 9.68126C11.9018 9.86894 11.5728 9.97179 11.2349 9.97751L2.81507 10.0221C2.4772 10.02 2.14708 9.92063 1.86416 9.73594C1.58123 9.55124 1.35744 9.28901 1.21953 8.98057C1.04961 8.62572 0.982795 8.23028 1.02669 7.8393C1.07059 7.44833 1.22344 7.07755 1.46781 6.76922L5.65073 1.64698C5.80997 1.44744 6.01164 1.28585 6.24109 1.17393C6.47055 1.06202 6.72204 1.00258 6.97732 0.999944Z" fill="#414145"/>
</svg>
