<svg width="26" height="22" viewBox="0 0 26 22" fill="none" xmlns="http://www.w3.org/2000/svg">
<path fill-rule="evenodd" clip-rule="evenodd" d="M0 20.35C0 20.7876 0.128404 21.2073 0.356964 21.5167C0.585524 21.8262 0.895517 22 1.21875 22C1.54198 22 1.85198 21.8262 2.08054 21.5167C2.3091 21.2073 2.4375 20.7876 2.4375 20.35V1.65C2.4375 1.21239 2.3091 0.792709 2.08054 0.483274C1.85198 0.173839 1.54198 0 1.21875 0C0.895517 0 0.585524 0.173839 0.356964 0.483274C0.128404 0.792709 0 1.21239 0 1.65L0 20.35ZM12.7416 2.684C12.9699 2.99338 13.0981 3.41275 13.0981 3.85C13.0981 4.28725 12.9699 4.70662 12.7416 5.016L9.54037 9.35H24.7812C25.1045 9.35 25.4145 9.52384 25.643 9.83327C25.8716 10.1427 26 10.5624 26 11C26 11.4376 25.8716 11.8573 25.643 12.1667C25.4145 12.4762 25.1045 12.65 24.7812 12.65H9.54037L12.7416 16.984C12.8614 17.1351 12.9574 17.3172 13.024 17.5196C13.0906 17.722 13.1264 17.9405 13.1293 18.1621C13.1322 18.3836 13.1021 18.6037 13.0408 18.8091C12.9795 19.0146 12.8883 19.2012 12.7726 19.3579C12.6568 19.5146 12.519 19.6381 12.3672 19.7211C12.2155 19.8041 12.0529 19.8448 11.8893 19.8409C11.7256 19.837 11.5642 19.7885 11.4148 19.6983C11.2653 19.6081 11.1307 19.4781 11.0191 19.316L5.73625 12.166L4.875 11L5.73625 9.834L11.0175 2.684C11.1307 2.53067 11.2651 2.40904 11.413 2.32605C11.5609 2.24307 11.7194 2.20035 11.8796 2.20035C12.0397 2.20035 12.1982 2.24307 12.3461 2.32605C12.4941 2.40904 12.6284 2.53067 12.7416 2.684Z" fill="#414145"/>
</svg>
  