<svg width="26" height="22" viewBox="0 0 26 22" fill="none" xmlns="http://www.w3.org/2000/svg">
<path fill-rule="evenodd" clip-rule="evenodd" d="M23.5625 1.65C23.5625 1.21239 23.6909 0.792709 23.9195 0.483274C24.148 0.173839 24.458 0 24.7812 0C25.1045 0 25.4145 0.173839 25.643 0.483274C25.8716 0.792709 26 1.21239 26 1.65V20.35C26 20.7876 25.8716 21.2073 25.643 21.5167C25.4145 21.8262 25.1045 22 24.7812 22C24.458 22 24.148 21.8262 23.9195 21.5167C23.6909 21.2073 23.5625 20.7876 23.5625 20.35V1.65ZM13.2584 2.684C13.0301 2.99338 12.9019 3.41275 12.9019 3.85C12.9019 4.28725 13.0301 4.70662 13.2584 5.016L16.4596 9.35H1.21875C0.895517 9.35 0.585524 9.52384 0.356964 9.83327C0.128404 10.1427 0 10.5624 0 11C0 11.4376 0.128404 11.8573 0.356964 12.1667C0.585524 12.4762 0.895517 12.65 1.21875 12.65H16.4596L13.2584 16.984C13.1386 17.1351 13.0426 17.3172 12.976 17.5196C12.9094 17.722 12.8736 17.9405 12.8707 18.1621C12.8678 18.3836 12.8979 18.6037 12.9592 18.8091C13.0205 19.0146 13.1117 19.2012 13.2274 19.3579C13.3432 19.5146 13.481 19.6381 13.6328 19.7211C13.7845 19.8041 13.9471 19.8448 14.1107 19.8409C14.2744 19.837 14.4358 19.7885 14.5852 19.6983C14.7347 19.6081 14.8693 19.4781 14.9809 19.316L20.2621 12.166L21.125 11L20.2638 9.834L14.9825 2.684C14.8693 2.53067 14.7349 2.40904 14.587 2.32605C14.4391 2.24307 14.2806 2.20035 14.1204 2.20035C13.9603 2.20035 13.8018 2.24307 13.6539 2.32605C13.5059 2.40904 13.3716 2.53067 13.2584 2.684Z" fill="#414145"/>
</svg>
