<svg width="24" height="22" viewBox="0 0 24 22" fill="none" xmlns="http://www.w3.org/2000/svg">
<path d="M22.6 12.6764C22.5999 11.4516 22.4054 10.2265 22.041 9.09267L22.3044 8.60976C22.7503 9.8864 23 11.2464 23 12.6774C23 15.9144 21.7585 18.8358 19.7639 20.9464C19.7227 20.9873 19.6798 21.0002 19.6432 21C19.6066 20.9998 19.5622 20.9866 19.5182 20.9401L19.5175 20.9394C19.4966 20.9173 19.4772 20.8881 19.4631 20.8522L18.5323 21.2176L19.4631 20.8521C19.449 20.8161 19.4411 20.7758 19.4411 20.7338C19.4411 20.6919 19.449 20.6515 19.4631 20.6155L18.5323 20.25L19.4631 20.6155C19.4771 20.58 19.4961 20.551 19.5168 20.529C20.5 19.4946 21.2768 18.2676 21.805 16.9204C22.333 15.5735 22.6028 14.1312 22.6 12.6764ZM22.6 12.6764C22.6 12.6767 22.6 12.677 22.6 12.6774H21.6L22.6 12.6753C22.6 12.6757 22.6 12.676 22.6 12.6764ZM10.7179 10.224L10.7179 10.224L10.7217 10.2217L19.1789 5.05048L14.3385 13.9093L14.3264 13.9313L14.3155 13.9539C13.8643 14.8882 12.9804 15.4806 12 15.4806C11.3287 15.4806 10.673 15.1994 10.1807 14.6792C9.68653 14.1572 9.4 13.438 9.4 12.6774C9.4 11.5989 9.95636 10.685 10.7179 10.224ZM4.48414 20.53L4.53301 20.5813C4.55681 20.6241 4.571 20.676 4.571 20.7338C4.571 20.8187 4.54044 20.8908 4.49376 20.9401C4.41935 21.0188 4.30927 21.0192 4.23572 20.9459C3.21278 19.8668 2.39862 18.5822 1.84238 17.1643C1.28512 15.7437 0.998439 14.2191 1.00001 12.6784V12.6774C1.00001 9.56316 2.17153 6.5868 4.24097 4.40055C6.30864 2.21617 9.10089 1 12 1C13.3663 1 14.6755 1.27578 15.8921 1.76388L15.3418 2.09891C14.2975 1.73394 13.1483 1.53547 12 1.53547C9.17044 1.53547 6.46865 2.72347 4.48554 4.81853C2.50419 6.91172 1.40001 9.73953 1.40001 12.6774C1.40001 15.7353 2.5664 18.518 4.48414 20.53Z" stroke="#414145" stroke-width="2"/>
</svg>
