<svg width="12" height="10" viewBox="0 0 12 10" fill="none" xmlns="http://www.w3.org/2000/svg">
<path d="M3.68315 0C1.649 0 0 1.49425 0 3.33751V7.4626C0 7.70303 0.215087 7.89793 0.480411 7.89793C0.745735 7.89793 0.960823 7.70303 0.960823 7.4626V3.33751C0.960823 1.9751 2.17965 0.870655 3.68315 0.870655H8.17523C8.44055 0.870655 8.65564 0.675752 8.65564 0.435328C8.65564 0.194903 8.44055 0 8.17523 0H3.68315Z" fill="currentColor"/>
<path fill-rule="evenodd" clip-rule="evenodd" d="M9.70594 2.05664C7.62996 1.84639 5.50131 1.84639 3.42532 2.05664C2.83392 2.11653 2.35867 2.53828 2.28896 3.07833C2.04275 4.98593 2.04275 6.91302 2.28896 8.82062C2.35867 9.36068 2.83391 9.78242 3.42532 9.84231C5.50131 10.0526 7.62996 10.0526 9.70594 9.84231C10.2973 9.78242 10.7726 9.36068 10.8423 8.82062C11.0885 6.91302 11.0885 4.98593 10.8423 3.07833C10.7726 2.53828 10.2973 2.11653 9.70594 2.05664ZM3.53204 2.92191C5.5371 2.71884 7.59416 2.71884 9.59922 2.92191C9.75126 2.9373 9.87079 3.04626 9.88798 3.17947C10.1255 5.01987 10.1255 6.87908 9.88798 8.71948C9.87079 8.8527 9.75126 8.96165 9.59922 8.97705C7.59416 9.18011 5.5371 9.18011 3.53204 8.97705C3.38 8.96165 3.26048 8.8527 3.24328 8.71948C3.00574 6.87908 3.00574 5.01987 3.24328 3.17947C3.26048 3.04626 3.38 2.9373 3.53204 2.92191Z" fill="currentColor"/>
</svg>
