<svg fill="currentColor" xmlns="http://www.w3.org/2000/svg">
<path d="M12 8.85185C12 9.09877 11.9057 9.30864 11.7172 9.48148L10.3434 10.7407C10.1549 10.9136 9.92593 11 9.65657 11C9.38721 11 9.15825 10.9136 8.9697 10.7407L6 8.01852L3.0303 10.7407C2.84175 10.9136 2.61279 11 2.34343 11C2.07407 11 1.84512 10.9136 1.65657 10.7407L0.282828 9.48148C0.0942761 9.30864 0 9.09877 0 8.85185C0 8.60494 0.0942761 8.39506 0.282828 8.22222L3.25253 5.5L0.282828 2.77778C0.0942761 2.60494 0 2.39506 0 2.14815C0 1.90123 0.0942761 1.69136 0.282828 1.51852L1.65657 0.259259C1.84512 0.0864198 2.07407 0 2.34343 0C2.61279 0 2.84175 0.0864198 3.0303 0.259259L6 2.98148L8.9697 0.259259C9.15825 0.0864198 9.38721 0 9.65657 0C9.92593 0 10.1549 0.0864198 10.3434 0.259259L11.7172 1.51852C11.9057 1.69136 12 1.90123 12 2.14815C12 2.39506 11.9057 2.60494 11.7172 2.77778L8.74747 5.5L11.7172 8.22222C11.9057 8.39506 12 8.60494 12 8.85185Z" fill="currentColor"/>
</svg>
