<svg width="26" height="25" viewBox="0 0 26 25" fill="none" xmlns="http://www.w3.org/2000/svg">
<path d="M24.7189 12.1277C24.6466 12.1332 24.5737 12.1115 24.5143 12.0648L24.0916 11.6876L22.4258 10.2009V12.4337V22.3683C22.4258 22.8042 22.2542 23.2202 21.9519 23.5255C21.6498 23.8305 21.2423 24 20.8193 24H5.18066C4.75773 24 4.35016 23.8305 4.04813 23.5255L3.33763 24.2292L4.04813 23.5255C3.74578 23.2202 3.57422 22.8042 3.57422 22.3683V12.4337V10.2009L1.90835 11.6877L1.48573 12.0648C1.42634 12.1115 1.35343 12.1332 1.28113 12.1277C1.20562 12.1219 1.13307 12.0866 1.07976 12.0261C1.02617 11.9652 0.996738 11.8838 1.00029 11.7989C1.00368 11.7179 1.03673 11.643 1.09018 11.588L12.8022 1.07649C12.8023 1.07638 12.8025 1.07628 12.8026 1.07617C12.8584 1.02625 12.9288 1 13 1C13.0713 1 13.1417 1.02629 13.1975 1.07628C13.1976 1.07635 13.1977 1.07642 13.1978 1.07649L24.9098 11.588C24.9633 11.643 24.9963 11.7179 24.9997 11.7989C25.0033 11.8838 24.9738 11.9652 24.9202 12.0261L25.6708 12.6869L24.9202 12.0261C24.8669 12.0866 24.7944 12.1219 24.7189 12.1277ZM4.51282 9.34723L4.18066 9.64526V10.0915V22.3683V23.3683H5.18066H9.09033H10.0903V22.3683V15.7891C10.0903 15.7023 10.1246 15.6209 10.1825 15.5624C10.2402 15.5042 10.3163 15.4733 10.3936 15.4733H15.6064C15.6837 15.4733 15.7598 15.5042 15.8175 15.5624C15.8754 15.6209 15.9097 15.7023 15.9097 15.7891V22.3683V23.3683H16.9097H20.8193H21.8193V22.3683V10.0928V9.64663L21.4872 9.3486L13.6679 2.33123L13.0001 1.73188L12.3322 2.33117L4.51282 9.34723ZM14.3032 23.3683H15.3032V22.3683V17.105V16.105H14.3032H11.6968H10.6968V17.105V22.3683V23.3683H11.6968H14.3032Z" stroke="#414145" stroke-width="2"/>
</svg>
