<svg viewBox="0 0 22 22" fill="currentColor" xmlns="http://www.w3.org/2000/svg">
<path d="M21.4917 3.8419L18.1581 0.508319C17.9969 0.346805 17.8054 0.218748 17.5946 0.131512C17.3838 0.0442766 17.1577 -0.000416693 16.9296 2.92761e-06C16.4838 2.92761e-06 16.0403 0.169055 15.7011 0.508319L11.5789 4.63158H1.15789C0.850802 4.63158 0.556287 4.75357 0.339139 4.97072C0.121992 5.18787 0 5.48238 0 5.78948V20.8421C0 21.1492 0.121992 21.4437 0.339139 21.6609C0.556287 21.878 0.850802 22 1.15789 22H16.2105C16.5176 22 16.8121 21.878 17.0293 21.6609C17.2464 21.4437 17.3684 21.1492 17.3684 20.8421V10.4211L21.4917 6.29779C21.8309 5.95853 22 5.5139 22 5.06927C22 4.62463 21.8309 4.18116 21.4917 3.8419ZM9.8421 14.6728L7.32716 12.1579L14.6138 4.87127L17.1287 7.38621L9.8421 14.6728ZM6.87674 13.1224L8.91 15.1233L6.94737 15.0526L6.87674 13.1224ZM15.0526 19.6842H2.31579V6.94737H9.26316L5.58105 10.6295C5.24179 10.9687 5.02758 11.5697 4.85274 12.122C4.66747 12.701 4.63158 13.3447 4.63158 13.8241V17.3684H8.17589C8.65526 17.3684 9.45884 17.2526 9.99495 17.0326C10.5322 16.8126 11.0324 16.6308 11.3705 16.2916L15.0526 12.7368V19.6842ZM17.9474 6.56758L15.4324 4.05263L16.9296 2.55548L19.4434 5.07042L17.9474 6.56758Z" fill="currentColor"/>
</svg>
