<svg  viewBox="0 0 14 15" fill="currentColor" xmlns="http://www.w3.org/2000/svg">
<path d="M7.81349 3.01902C7.54643 2.98504 7.27507 2.96556 7.00001 2.96072C5.79805 2.96699 4.55207 3.31094 3.37268 3.96999C2.49701 4.47949 1.644 5.19877 0.903199 6.08602C0.539374 6.53895 0.0750284 7.19475 0 7.89445C0.00886667 8.50057 0.561785 9.24869 0.903199 9.7029C1.59787 10.5553 2.42866 11.254 3.37268 11.8189C3.40477 11.8373 3.43697 11.8554 3.46924 11.8732L2.5934 13.6726L3.78346 14.5L10.2166 1.32361L9.07114 0.5L7.81349 3.01902ZM10.5299 3.91772L9.65576 5.69999C10.0579 6.31462 10.2966 7.07257 10.2966 7.89445C10.2966 9.94299 8.82054 11.6038 6.99914 11.6038C6.9204 11.6038 6.84409 11.5938 6.76672 11.5877L6.18823 12.7659C6.45502 12.7995 6.72478 12.824 6.99999 12.8282C8.2031 12.8218 9.44837 12.4739 10.6265 11.8189C11.5021 11.3094 12.356 10.5901 13.0968 9.7029C13.4606 9.24999 13.925 8.59417 14 7.89445C13.9911 7.28834 13.4382 6.54022 13.0968 6.08601C12.4021 5.23361 11.5705 4.53491 10.6265 3.96997C10.5946 3.95179 10.562 3.93545 10.5299 3.91772ZM6.99915 4.18512C7.07902 4.18512 7.15826 4.18888 7.2367 4.19516L6.55909 5.57536C5.60809 5.80218 4.89453 6.75406 4.89453 7.89346C4.89453 8.17968 4.93934 8.4537 5.02185 8.70769C5.02194 8.70798 5.02176 8.70842 5.02185 8.70871L4.34252 10.0929C3.93943 9.47773 3.70165 8.71729 3.70165 7.89443C3.70166 5.84592 5.17776 4.1851 6.99915 4.18512ZM8.97046 7.09529L7.44349 10.2075C8.38938 9.97644 9.09779 9.0289 9.09779 7.89346C9.09779 7.61246 9.05012 7.3453 8.97046 7.09529Z" fill="currentColor"/>
</svg>
