<svg width="26" height="26" viewBox="0 0 26 26" fill="none" xmlns="http://www.w3.org/2000/svg">
<path d="M22.4 11.9482V12.3858L22.7214 12.6827C24.1482 14.0007 25 15.7747 25 17.7273C25 21.6611 21.4705 25 16.9 25C14.66 25 12.6621 24.1905 11.2098 22.8911L10.925 22.6364H10.543H2.6C2.14652 22.6364 1.72854 22.4717 1.4342 22.2041C1.14302 21.9394 1 21.602 1 21.2727V4.72727C1 4.06711 1.63046 3.36364 2.6 3.36364H8.034H8.71212L8.96303 2.73365C9.34958 1.76309 10.3975 1 11.7 1C13.0025 1 14.0504 1.76309 14.437 2.73365L14.6879 3.36364H15.366H20.8C21.2535 3.36364 21.6715 3.52828 21.9658 3.79587C22.257 4.06058 22.4 4.39804 22.4 4.72727V11.9482ZM1.6 21.2727V22.2727H2.6H8.684H10.3308L9.5713 20.8115C9.07981 19.866 8.8 18.8295 8.8 17.7273C8.8 17.3909 8.83257 17.0568 8.89039 16.7099L9.08446 15.5455H7.904H6.2V15.1818H8.684H9.28683L9.5683 14.6487C9.98796 13.8539 10.5126 13.1545 11.1836 12.575L13.2178 10.8182H10.53H6.2V10.4545H16.9C18.1617 10.4545 19.3408 10.7197 20.4053 11.177L21.8 11.7761V10.2582V4.72727V3.72727H20.8H18.2H17.2V4.72727V6.09091H6.2V4.72727V3.72727H5.2H2.6H1.6V4.72727V21.2727ZM14 3.54545C14 2.25561 12.8755 1.36364 11.7 1.36364C10.5245 1.36364 9.4 2.25561 9.4 3.54545C9.4 4.83529 10.5245 5.72727 11.7 5.72727C12.8755 5.72727 14 4.83529 14 3.54545ZM9.4 17.7273C9.4 21.6289 12.8515 24.6364 16.9 24.6364C20.9485 24.6364 24.4 21.6289 24.4 17.7273C24.4 13.8256 20.9485 10.8182 16.9 10.8182C12.8515 10.8182 9.4 13.8256 9.4 17.7273Z" stroke="#414145" stroke-width="2"/>
</svg>
