<svg width="26" height="26" viewBox="0 0 26 26" fill="none" xmlns="http://www.w3.org/2000/svg">
<mask id="path-1-inside-1_1654_32906" fill="white">
<path d="M7.8 0H18.2C20.2687 0 22.2526 0.821783 23.7154 2.28457C25.1782 3.74735 26 5.73131 26 7.8V18.2C26 20.2687 25.1782 22.2526 23.7154 23.7154C22.2526 25.1782 20.2687 26 18.2 26H7.8C5.73131 26 3.74735 25.1782 2.28457 23.7154C0.821783 22.2526 0 20.2687 0 18.2L0 7.8C0 5.73131 0.821783 3.74735 2.28457 2.28457C3.74735 0.821783 5.73131 0 7.8 0ZM7.8 2.6C6.42087 2.6 5.09823 3.14786 4.12304 4.12304C3.14786 5.09823 2.6 6.42087 2.6 7.8V18.2C2.6 19.5791 3.14786 20.9018 4.12304 21.877C5.09823 22.8521 6.42087 23.4 7.8 23.4H18.2C19.5791 23.4 20.9018 22.8521 21.877 21.877C22.8521 20.9018 23.4 19.5791 23.4 18.2V7.8C23.4 6.42087 22.8521 5.09823 21.877 4.12304C20.9018 3.14786 19.5791 2.6 18.2 2.6H7.8ZM15.6 11.7H19.5C19.8448 11.7 20.1754 11.837 20.4192 12.0808C20.663 12.3246 20.8 12.6552 20.8 13C20.8 13.3448 20.663 13.6754 20.4192 13.9192C20.1754 14.163 19.8448 14.3 19.5 14.3H15.6C15.2552 14.3 14.9246 14.163 14.6808 13.9192C14.437 13.6754 14.3 13.3448 14.3 13C14.3 12.6552 14.437 12.3246 14.6808 12.0808C14.9246 11.837 15.2552 11.7 15.6 11.7ZM13 16.9H19.5C19.8448 16.9 20.1754 17.037 20.4192 17.2808C20.663 17.5246 20.8 17.8552 20.8 18.2C20.8 18.5448 20.663 18.8754 20.4192 19.1192C20.1754 19.363 19.8448 19.5 19.5 19.5H13C12.6552 19.5 12.3246 19.363 12.0808 19.1192C11.837 18.8754 11.7 18.5448 11.7 18.2C11.7 17.8552 11.837 17.5246 12.0808 17.2808C12.3246 17.037 12.6552 16.9 13 16.9ZM13 6.5H19.5C19.8448 6.5 20.1754 6.63696 20.4192 6.88076C20.663 7.12456 20.8 7.45522 20.8 7.8C20.8 8.14478 20.663 8.47544 20.4192 8.71924C20.1754 8.96304 19.8448 9.1 19.5 9.1H13C12.6552 9.1 12.3246 8.96304 12.0808 8.71924C11.837 8.47544 11.7 8.14478 11.7 7.8C11.7 7.45522 11.837 7.12456 12.0808 6.88076C12.3246 6.63696 12.6552 6.5 13 6.5ZM7.5764 13.3159L10.335 10.556C10.4558 10.4353 10.5992 10.3396 10.7569 10.2743C10.9147 10.209 11.0838 10.1754 11.2546 10.1755C11.4253 10.1755 11.5944 10.2092 11.7521 10.2746C11.9098 10.34 12.0532 10.4359 12.1739 10.5566C12.2945 10.6774 12.3903 10.8208 12.4556 10.9786C12.5209 11.1364 12.5544 11.3055 12.5544 11.4762C12.5543 11.647 12.5206 11.816 12.4552 11.9738C12.3898 12.1315 12.294 12.2748 12.1732 12.3955L8.4968 16.0719C8.37606 16.1928 8.23269 16.2887 8.07487 16.3541C7.91705 16.4195 7.74789 16.4532 7.57705 16.4532C7.40621 16.4532 7.23704 16.4195 7.07923 16.3541C6.92141 16.2887 6.77803 16.1928 6.6573 16.0719L4.8191 14.235C4.58229 13.9898 4.45126 13.6614 4.45422 13.3206C4.45719 12.9797 4.59391 12.6537 4.83494 12.4126C5.07597 12.1716 5.40202 12.0349 5.74288 12.0319C6.08373 12.029 6.41212 12.16 6.6573 12.3968L7.5764 13.3159Z"/>
</mask>
<path d="M7.8 0V-2V0ZM18.2 0V-2V0ZM26 18.2H28H26ZM7.8 26V28V26ZM0 18.2H-2H0ZM0 7.8H-2H0ZM7.8 2.6V0.6V2.6ZM2.6 7.8H0.6H2.6ZM2.6 18.2H0.6H2.6ZM13 6.5V8.5V6.5ZM7.5764 13.3159L6.16219 14.7301L7.57674 16.1447L8.99095 14.7298L7.5764 13.3159ZM10.335 10.556L8.92129 9.14129L8.92045 9.14212L10.335 10.556ZM12.1732 12.3955L10.7595 10.9808L10.759 10.9813L12.1732 12.3955ZM8.4968 16.0719L7.08259 14.6577L7.0818 14.6585L8.4968 16.0719ZM6.6573 16.0719L8.0723 14.6585L8.07101 14.6572L6.6573 16.0719ZM4.8191 14.235L3.38052 15.6244L3.39284 15.6372L3.40539 15.6497L4.8191 14.235ZM6.6573 12.3968L8.07151 10.9826L8.05922 10.9703L8.04672 10.9582L6.6573 12.3968ZM7.8 2H18.2V-2H7.8V2ZM18.2 2C19.7383 2 21.2135 2.61107 22.3012 3.69878L25.1296 0.870353C23.2918 -0.967503 20.7991 -2 18.2 -2V2ZM22.3012 3.69878C23.3889 4.78649 24 6.26174 24 7.8H28C28 5.20088 26.9675 2.70821 25.1296 0.870353L22.3012 3.69878ZM24 7.8V18.2H28V7.8H24ZM24 18.2C24 19.7383 23.3889 21.2135 22.3012 22.3012L25.1296 25.1296C26.9675 23.2918 28 20.7991 28 18.2H24ZM22.3012 22.3012C21.2135 23.3889 19.7383 24 18.2 24V28C20.7991 28 23.2918 26.9675 25.1296 25.1296L22.3012 22.3012ZM18.2 24H7.8V28H18.2V24ZM7.8 24C6.26174 24 4.78649 23.3889 3.69878 22.3012L0.870353 25.1296C2.70821 26.9675 5.20088 28 7.8 28V24ZM3.69878 22.3012C2.61107 21.2135 2 19.7383 2 18.2H-2C-2 20.7991 -0.967503 23.2918 0.870353 25.1296L3.69878 22.3012ZM2 18.2V7.8H-2V18.2H2ZM2 7.8C2 6.26174 2.61107 4.78649 3.69878 3.69878L0.870353 0.870353C-0.967503 2.70821 -2 5.20088 -2 7.8H2ZM3.69878 3.69878C4.78649 2.61107 6.26174 2 7.8 2V-2C5.20088 -2 2.70821 -0.967503 0.870353 0.870353L3.69878 3.69878ZM7.8 0.6C5.89044 0.6 4.05909 1.35857 2.70883 2.70883L5.53726 5.53726C6.13737 4.93714 6.95131 4.6 7.8 4.6V0.6ZM2.70883 2.70883C1.35857 4.05909 0.6 5.89044 0.6 7.8H4.6C4.6 6.95131 4.93714 6.13737 5.53726 5.53726L2.70883 2.70883ZM0.6 7.8V18.2H4.6V7.8H0.6ZM0.6 18.2C0.6 20.1096 1.35857 21.9409 2.70883 23.2912L5.53726 20.4627C4.93714 19.8626 4.6 19.0487 4.6 18.2H0.6ZM2.70883 23.2912C4.05909 24.6414 5.89044 25.4 7.8 25.4V21.4C6.95131 21.4 6.13737 21.0629 5.53726 20.4627L2.70883 23.2912ZM7.8 25.4H18.2V21.4H7.8V25.4ZM18.2 25.4C20.1096 25.4 21.9409 24.6414 23.2912 23.2912L20.4627 20.4627C19.8626 21.0629 19.0487 21.4 18.2 21.4V25.4ZM23.2912 23.2912C24.6414 21.9409 25.4 20.1096 25.4 18.2H21.4C21.4 19.0487 21.0629 19.8626 20.4627 20.4627L23.2912 23.2912ZM25.4 18.2V7.8H21.4V18.2H25.4ZM25.4 7.8C25.4 5.89044 24.6414 4.05909 23.2912 2.70883L20.4627 5.53726C21.0629 6.13737 21.4 6.95131 21.4 7.8H25.4ZM23.2912 2.70883C21.9409 1.35857 20.1096 0.6 18.2 0.6V4.6C19.0487 4.6 19.8626 4.93714 20.4627 5.53726L23.2912 2.70883ZM18.2 0.6H7.8V4.6H18.2V0.6ZM15.6 13.7H19.5V9.7H15.6V13.7ZM19.5 13.7C19.3143 13.7 19.1363 13.6262 19.005 13.495L21.8335 10.6665C21.2146 10.0477 20.3752 9.7 19.5 9.7V13.7ZM19.005 13.495C18.8737 13.3637 18.8 13.1857 18.8 13H22.8C22.8 12.1248 22.4523 11.2854 21.8335 10.6665L19.005 13.495ZM18.8 13C18.8 12.8143 18.8738 12.6363 19.005 12.505L21.8335 15.3335C22.4523 14.7146 22.8 13.8752 22.8 13H18.8ZM19.005 12.505C19.1363 12.3738 19.3143 12.3 19.5 12.3V16.3C20.3752 16.3 21.2146 15.9523 21.8335 15.3335L19.005 12.505ZM19.5 12.3H15.6V16.3H19.5V12.3ZM15.6 12.3C15.7857 12.3 15.9637 12.3738 16.095 12.505L13.2665 15.3335C13.8854 15.9523 14.7248 16.3 15.6 16.3V12.3ZM16.095 12.505C16.2262 12.6363 16.3 12.8143 16.3 13H12.3C12.3 13.8752 12.6477 14.7146 13.2665 15.3335L16.095 12.505ZM16.3 13C16.3 13.1857 16.2262 13.3637 16.095 13.495L13.2665 10.6665C12.6477 11.2854 12.3 12.1248 12.3 13H16.3ZM16.095 13.495C15.9637 13.6262 15.7857 13.7 15.6 13.7V9.7C14.7248 9.7 13.8854 10.0477 13.2665 10.6665L16.095 13.495ZM13 18.9H19.5V14.9H13V18.9ZM19.5 18.9C19.3143 18.9 19.1363 18.8262 19.005 18.695L21.8335 15.8665C21.2146 15.2477 20.3752 14.9 19.5 14.9V18.9ZM19.005 18.695C18.8738 18.5637 18.8 18.3857 18.8 18.2H22.8C22.8 17.3248 22.4523 16.4854 21.8335 15.8665L19.005 18.695ZM18.8 18.2C18.8 18.0143 18.8737 17.8363 19.005 17.705L21.8335 20.5335C22.4523 19.9146 22.8 19.0752 22.8 18.2H18.8ZM19.005 17.705C19.1363 17.5738 19.3143 17.5 19.5 17.5V21.5C20.3752 21.5 21.2146 21.1523 21.8335 20.5335L19.005 17.705ZM19.5 17.5H13V21.5H19.5V17.5ZM13 17.5C13.1857 17.5 13.3637 17.5737 13.495 17.705L10.6665 20.5335C11.2854 21.1523 12.1248 21.5 13 21.5V17.5ZM13.495 17.705C13.6262 17.8363 13.7 18.0143 13.7 18.2H9.7C9.7 19.0752 10.0477 19.9146 10.6665 20.5335L13.495 17.705ZM13.7 18.2C13.7 18.3857 13.6262 18.5637 13.495 18.695L10.6665 15.8665C10.0477 16.4854 9.7 17.3248 9.7 18.2H13.7ZM13.495 18.695C13.3637 18.8263 13.1857 18.9 13 18.9V14.9C12.1248 14.9 11.2854 15.2477 10.6665 15.8665L13.495 18.695ZM13 8.5H19.5V4.5H13V8.5ZM19.5 8.5C19.3143 8.5 19.1363 8.42625 19.005 8.29498L21.8335 5.46655C21.2146 4.84768 20.3752 4.5 19.5 4.5V8.5ZM19.005 8.29498C18.8738 8.1637 18.8 7.98565 18.8 7.8H22.8C22.8 6.92478 22.4523 6.08542 21.8335 5.46655L19.005 8.29498ZM18.8 7.8C18.8 7.61435 18.8738 7.4363 19.005 7.30502L21.8335 10.1335C22.4523 9.51458 22.8 8.67522 22.8 7.8H18.8ZM19.005 7.30502C19.1363 7.17375 19.3143 7.1 19.5 7.1V11.1C20.3752 11.1 21.2146 10.7523 21.8335 10.1335L19.005 7.30502ZM19.5 7.1H13V11.1H19.5V7.1ZM13 7.1C13.1857 7.1 13.3637 7.17375 13.495 7.30502L10.6665 10.1335C11.2854 10.7523 12.1248 11.1 13 11.1V7.1ZM13.495 7.30502C13.6262 7.4363 13.7 7.61435 13.7 7.8H9.7C9.7 8.67522 10.0477 9.51458 10.6665 10.1335L13.495 7.30502ZM13.7 7.8C13.7 7.98565 13.6262 8.1637 13.495 8.29498L10.6665 5.46655C10.0477 6.08542 9.7 6.92478 9.7 7.8H13.7ZM13.495 8.29498C13.3637 8.42625 13.1857 8.5 13 8.5V4.5C12.1248 4.5 11.2854 4.84768 10.6665 5.46655L13.495 8.29498ZM8.99095 14.7298L11.7495 11.9699L8.92045 9.14212L6.16185 11.902L8.99095 14.7298ZM11.7487 11.9707C11.6837 12.0357 11.6066 12.0872 11.5216 12.1223L9.99222 8.42626C9.59176 8.59197 9.22785 8.83494 8.92129 9.14129L11.7487 11.9707ZM11.5216 12.1223C11.4367 12.1575 11.3457 12.1755 11.2539 12.1755L11.2553 8.17549C10.8219 8.17533 10.3927 8.26054 9.99222 8.42626L11.5216 12.1223ZM11.2539 12.1755C11.162 12.1755 11.071 12.1573 10.9861 12.1221L12.5181 8.42715C12.1178 8.26116 11.6887 8.17564 11.2553 8.17549L11.2539 12.1755ZM10.9861 12.1221C10.9012 12.0869 10.8241 12.0354 10.7591 11.9704L13.5886 9.14293C13.2822 8.83636 12.9185 8.59314 12.5181 8.42715L10.9861 12.1221ZM10.7591 11.9704C10.6942 11.9054 10.6427 11.8282 10.6075 11.7433L14.3036 10.2139C14.1379 9.81341 13.8949 9.44951 13.5886 9.14293L10.7591 11.9704ZM10.6075 11.7433C10.5724 11.6584 10.5543 11.5674 10.5544 11.4755L14.5544 11.4769C14.5545 11.0435 14.4693 10.6143 14.3036 10.2139L10.6075 11.7433ZM10.5544 11.4755C10.5544 11.3836 10.5725 11.2926 10.6077 11.2077L14.3027 12.7398C14.4687 12.3394 14.5542 11.9103 14.5544 11.4769L10.5544 11.4755ZM10.6077 11.2077C10.6429 11.1229 10.6945 11.0457 10.7595 10.9808L13.5869 13.8102C13.8935 13.5039 14.1367 13.1401 14.3027 12.7398L10.6077 11.2077ZM10.759 10.9813L7.08259 14.6577L9.91101 17.4861L13.5874 13.8097L10.759 10.9813ZM7.0818 14.6585C7.1468 14.5934 7.224 14.5418 7.30899 14.5065L8.84075 18.2016C9.24137 18.0355 9.60532 17.7921 9.9118 17.4853L7.0818 14.6585ZM7.30899 14.5065C7.39398 14.4713 7.48507 14.4532 7.57705 14.4532V18.4532C8.01071 18.4532 8.44013 18.3677 8.84075 18.2016L7.30899 14.5065ZM7.57705 14.4532C7.66903 14.4532 7.76012 14.4713 7.84511 14.5065L6.31335 18.2016C6.71397 18.3677 7.14339 18.4532 7.57705 18.4532V14.4532ZM7.84511 14.5065C7.93009 14.5418 8.00729 14.5934 8.0723 14.6585L5.2423 17.4853C5.54878 17.7921 5.91273 18.0356 6.31335 18.2016L7.84511 14.5065ZM8.07101 14.6572L6.23281 12.8203L3.40539 15.6497L5.24359 17.4866L8.07101 14.6572ZM6.25768 12.8456C6.38519 12.9776 6.45574 13.1544 6.45415 13.338L2.4543 13.3032C2.44678 14.1685 2.7794 15.002 3.38052 15.6244L6.25768 12.8456ZM6.45415 13.338C6.45255 13.5215 6.37894 13.6971 6.24915 13.8268L3.42072 10.9984C2.80888 11.6103 2.46182 12.438 2.4543 13.3032L6.45415 13.338ZM6.24915 13.8268C6.11936 13.9566 5.94379 14.0303 5.76026 14.0318L5.7255 10.032C4.86025 10.0395 4.03257 10.3866 3.42072 10.9984L6.24915 13.8268ZM5.76026 14.0318C5.57671 14.0334 5.39989 13.9629 5.26788 13.8354L8.04672 10.9582C7.42434 10.3571 6.59075 10.0245 5.7255 10.032L5.76026 14.0318ZM5.24309 13.811L6.16219 14.7301L8.99061 11.9017L8.07151 10.9826L5.24309 13.811Z" fill="currentColor" mask="url(#path-1-inside-1_1654_32906)"/>
</svg>
