<svg
        width="24"
        height="24"
        viewBox="0 0 24 24"
        fill="none"
        xmlns="http://www.w3.org/2000/svg"
      >
        <path
          d="M21.806 11.1538C21.806 9.14459 21.1952 7.18051 20.0511 5.51021C18.9069 3.83991 17.2807 2.53848 15.3784 1.77066C13.4761 1.00284 11.3832 0.803151 9.36452 1.19686C7.34588 1.59058 5.49229 2.55999 4.03838 3.9824C2.58447 5.40482 1.5956 7.21627 1.19694 9.18748C0.798288 11.1587 1.00777 13.201 1.79887 15.056C2.58997 16.9109 3.92712 18.4951 5.64107 19.608C7.35503 20.7208 9.36872 21.3124 11.4273 21.3077M1.69354 7.76922H21.1124M1.69354 14.5385H11.9809"
          stroke="currentColor"
          stroke-width="2"
          stroke-linecap="round"
          stroke-linejoin="round"
        />
        <path
          d="M10.8249 1C8.87758 4.04572 7.84521 7.56375 7.84521 11.1538C7.84521 14.7439 8.87758 18.262 10.8249 21.3077M11.9807 1C14.216 4.49495 15.2382 8.5998 14.8959 12.7063M19.4952 21.3077C18.882 21.3077 18.294 21.07 17.8605 20.6468C17.4269 20.2236 17.1834 19.6497 17.1834 19.0513C17.1834 18.4528 17.4269 17.8789 17.8605 17.4558C18.294 17.0326 18.882 16.7949 19.4952 16.7949M19.4952 21.3077C20.1083 21.3077 20.6963 21.07 21.1298 20.6468C21.5634 20.2236 21.8069 19.6497 21.8069 19.0513C21.8069 18.4528 21.5634 17.8789 21.1298 17.4558C20.6963 17.0326 20.1083 16.7949 19.4952 16.7949M19.4952 21.3077V23M19.4952 16.7949V15.1026M22.9987 17.0769L21.4972 17.9231M17.4943 20.1795L15.9917 21.0256M15.9917 17.0769L17.4943 17.9231M21.4972 20.1795L22.9998 21.0256"
          stroke="currentColor"
          stroke-width="2"
          stroke-linecap="round"
          stroke-linejoin="round"
        />
      </svg>