<svg viewBox="0 0 21 16" fill="currentColor" xmlns="http://www.w3.org/2000/svg">
<path d="M11.9385 11.76C11.8979 11.833 11.8396 11.8936 11.7695 11.9357C11.6993 11.9779 11.6197 12 11.5386 12H0.461091C0.380109 11.9999 0.300575 11.9777 0.230475 11.9355C0.160374 11.8934 0.102174 11.8328 0.0617195 11.7598C0.0212648 11.6869 -2.07751e-05 11.6041 1.52153e-08 11.5199C2.08056e-05 11.4357 0.0213472 11.353 0.0618379 11.2801C0.94054 9.70051 2.29465 8.56787 3.87493 8.03094C3.09325 7.54708 2.48594 6.80979 2.14625 5.9323C1.80657 5.05481 1.75329 4.08564 1.9946 3.17361C2.23592 2.26159 2.75848 1.45715 3.48204 0.883827C4.2056 0.310504 5.09015 0 5.99986 0C6.90956 0 7.79411 0.310504 8.51767 0.883827C9.24123 1.45715 9.7638 2.26159 10.0051 3.17361C10.2464 4.08564 10.1931 5.05481 9.85346 5.9323C9.51377 6.80979 8.90646 7.54708 8.12478 8.03094C9.70506 8.56787 11.0592 9.70051 11.9379 11.2801C11.9785 11.353 11.9999 11.4357 12 11.52C12.0001 11.6042 11.9789 11.687 11.9385 11.76Z" fill="currentColor"/>
<path d="M20.9384 15.76C20.8979 15.833 20.8396 15.8936 20.7695 15.9357C20.6993 15.9779 20.6197 16 20.5386 16H9.46109C9.38011 15.9999 9.30058 15.9777 9.23047 15.9355C9.16037 15.8934 9.10217 15.8328 9.06172 15.7598C9.02126 15.6869 8.99998 15.6041 9 15.5199C9.00002 15.4357 9.02135 15.353 9.06184 15.2801C9.94054 13.7005 11.2947 12.5679 12.8749 12.0309C12.0933 11.5471 11.4859 10.8098 11.1463 9.9323C10.8066 9.05481 10.7533 8.08564 10.9946 7.17361C11.2359 6.26159 11.7585 5.45715 12.482 4.88383C13.2056 4.3105 14.0902 4 14.9999 4C15.9096 4 16.7941 4.3105 17.5177 4.88383C18.2412 5.45715 18.7638 6.26159 19.0051 7.17361C19.2464 8.08564 19.1931 9.05481 18.8535 9.9323C18.5138 10.8098 17.9065 11.5471 17.1248 12.0309C18.7051 12.5679 20.0592 13.7005 20.9379 15.2801C20.9785 15.353 20.9999 15.4357 21 15.52C21.0001 15.6042 20.9789 15.687 20.9384 15.76Z" fill="currentColor"/>
</svg>
