<svg  viewBox="0 0 17 16" fill="currentColor" xmlns="http://www.w3.org/2000/svg">
<path d="M16.2514 15.68C16.1974 15.7773 16.1197 15.8581 16.0261 15.9143C15.9325 15.9705 15.8264 16 15.7183 16H0.948283C0.840309 15.9999 0.734263 15.9702 0.640795 15.914C0.547328 15.8578 0.469728 15.777 0.415789 15.6798C0.361849 15.5825 0.333468 15.4722 0.333496 15.3599C0.333524 15.2477 0.361959 15.1374 0.415947 15.0401C1.58755 12.934 3.39303 11.4238 5.50007 10.7079C4.45784 10.0628 3.64808 9.07972 3.19517 7.90974C2.74225 6.73975 2.67121 5.44752 2.99296 4.23149C3.31472 3.01546 4.01147 1.94287 4.97622 1.17844C5.94096 0.414005 7.12037 0 8.3333 0C9.54624 0 10.7256 0.414005 11.6904 1.17844C12.6551 1.94287 13.3519 3.01546 13.6736 4.23149C13.9954 5.44752 13.9244 6.73975 13.4714 7.90974C13.0185 9.07972 12.2088 10.0628 11.1665 10.7079C13.2736 11.4238 15.0791 12.934 16.2507 15.0401C16.3048 15.1373 16.3334 15.2477 16.3335 15.36C16.3336 15.4723 16.3053 15.5827 16.2514 15.68Z" fill="currentColor"/>
</svg>
