<svg viewBox="0 0 22 22" fill="currentColor" xmlns="http://www.w3.org/2000/svg">
<path fill-rule="evenodd" clip-rule="evenodd" d="M3.09375 0C2.27324 0 1.48633 0.325948 0.906138 0.906138C0.325948 1.48633 0 2.27324 0 3.09375V6.53125C0 7.35176 0.325948 8.13867 0.906138 8.71886C1.48633 9.29905 2.27324 9.625 3.09375 9.625H6.53125C7.35176 9.625 8.13867 9.29905 8.71886 8.71886C9.29905 8.13867 9.625 7.35176 9.625 6.53125V3.09375C9.625 2.27324 9.29905 1.48633 8.71886 0.906138C8.13867 0.325948 7.35176 0 6.53125 0H3.09375ZM3.09375 12.375C2.27324 12.375 1.48633 12.7009 0.906138 13.2811C0.325948 13.8613 0 14.6482 0 15.4688V18.9062C0 19.7268 0.325948 20.5137 0.906138 21.0939C1.48633 21.6741 2.27324 22 3.09375 22H6.53125C7.35176 22 8.13867 21.6741 8.71886 21.0939C9.29905 20.5137 9.625 19.7268 9.625 18.9062V15.4688C9.625 14.6482 9.29905 13.8613 8.71886 13.2811C8.13867 12.7009 7.35176 12.375 6.53125 12.375H3.09375ZM15.4688 0C14.6482 0 13.8613 0.325948 13.2811 0.906138C12.7009 1.48633 12.375 2.27324 12.375 3.09375V6.53125C12.375 7.35176 12.7009 8.13867 13.2811 8.71886C13.8613 9.29905 14.6482 9.625 15.4688 9.625H18.9062C19.7268 9.625 20.5137 9.29905 21.0939 8.71886C21.6741 8.13867 22 7.35176 22 6.53125V3.09375C22 2.27324 21.6741 1.48633 21.0939 0.906138C20.5137 0.325948 19.7268 0 18.9062 0H15.4688ZM15.4688 12.375C14.6482 12.375 13.8613 12.7009 13.2811 13.2811C12.7009 13.8613 12.375 14.6482 12.375 15.4688V18.9062C12.375 19.7268 12.7009 20.5137 13.2811 21.0939C13.8613 21.6741 14.6482 22 15.4688 22H18.9062C19.7268 22 20.5137 21.6741 21.0939 21.0939C21.6741 20.5137 22 19.7268 22 18.9062V15.4688C22 14.6482 21.6741 13.8613 21.0939 13.2811C20.5137 12.7009 19.7268 12.375 18.9062 12.375H15.4688Z" fill="currentColor"/>
</svg>
