<svg width="26" height="26" viewBox="0 0 26 26" fill="none" xmlns="http://www.w3.org/2000/svg">
<path d="M13.0001 7.58329C13.5984 7.58329 14.0834 7.09827 14.0834 6.49996C14.0834 5.90165 13.5984 5.41663 13.0001 5.41663C12.4018 5.41663 11.9167 5.90165 11.9167 6.49996C11.9167 7.09827 12.4018 7.58329 13.0001 7.58329Z" fill="currentColor"/>
<path d="M6.5 18.4166H19.5V20.5833H6.5V18.4166ZM10.8333 12.8158L13.858 15.8426L18.1177 11.5797L19.5 13V8.66663H15.1667L16.5858 10.0479L13.8569 12.7768L10.8333 9.74996L6.5 14.0833L8.03183 15.6151L10.8333 12.8158Z" fill="currentColor"/>
<path d="M20.5834 3.24995H17.0106C16.9042 3.08977 16.7885 2.93603 16.6639 2.78953L16.6531 2.77653C15.8571 1.84947 14.7373 1.26126 13.5222 1.13203C13.1772 1.06634 12.8229 1.06634 12.4779 1.13203C11.2629 1.26126 10.143 1.84947 9.34708 2.77653L9.33625 2.78953C9.21174 2.93568 9.09599 3.08906 8.98958 3.24886L5.41675 3.24995C4.55506 3.25081 3.72891 3.59349 3.1196 4.2028C2.51029 4.81211 2.16761 5.63826 2.16675 6.49995V21.6666C2.16761 22.5283 2.51029 23.3545 3.1196 23.9638C3.72891 24.5731 4.55506 24.9158 5.41675 24.9166H20.5834C21.4451 24.9158 22.2713 24.5731 22.8806 23.9638C23.4899 23.3545 23.8326 22.5283 23.8334 21.6666V6.49995C23.8326 5.63826 23.4899 4.81211 22.8806 4.2028C22.2713 3.59349 21.4451 3.25081 20.5834 3.24995ZM21.6667 21.6666C21.6667 21.9539 21.5526 22.2295 21.3494 22.4326C21.1463 22.6358 20.8707 22.7499 20.5834 22.7499H5.41675C5.12952 22.7497 4.85414 22.6354 4.65103 22.4323C4.44793 22.2292 4.3337 21.9538 4.33341 21.6666V6.49995C4.3337 6.21272 4.44793 5.93733 4.65103 5.73423C4.85414 5.53113 5.12952 5.4169 5.41675 5.41661H10.3459C10.4702 4.80437 10.8024 4.25394 11.2861 3.85858C11.7698 3.46321 12.3753 3.24723 13.0001 3.24723C13.6248 3.24723 14.2303 3.46321 14.7141 3.85858C15.1978 4.25394 15.5299 4.80437 15.6542 5.41661H20.5834C20.8706 5.4169 21.146 5.53113 21.3491 5.73423C21.5522 5.93733 21.6665 6.21272 21.6667 6.49995V21.6666Z" fill="currentColor"/>
</svg>
