<svg viewBox="0 0 22 22" fill="currentColor" xmlns="http://www.w3.org/2000/svg">
<path d="M15.5164 22L15.1839 20.0588C14.9622 19.951 14.7542 19.8375 14.5599 19.7185C14.3656 19.5994 14.1672 19.454 13.9647 19.2824L12.3577 19.8647L11.2494 17.6647L12.5239 16.3706C12.487 16.0686 12.4685 15.7882 12.4685 15.5294C12.4685 15.2706 12.487 14.9902 12.5239 14.6882L11.2494 13.3941L12.3577 11.1941L13.9647 11.7765C14.1679 11.6039 14.3667 11.4585 14.561 11.3404C14.7553 11.2222 14.963 11.1087 15.1839 11L15.5164 9.05882H17.733L18.0655 11C18.2872 11.1078 18.4951 11.2265 18.6895 11.3559C18.8838 11.4853 19.0822 11.6471 19.2846 11.8412L20.8917 11.1941L22 13.4588L20.7254 14.7529C20.7624 15.0118 20.7809 15.2814 20.7809 15.5618C20.7809 15.8422 20.7624 16.1118 20.7254 16.3706L22 17.6647L20.8917 19.8647L19.2846 19.2824C19.0814 19.4549 18.8831 19.6007 18.6895 19.7198C18.4959 19.8388 18.2879 19.9518 18.0655 20.0588L17.733 22H15.5164ZM0 20.7059V17.0824C0 16.3706 0.157011 15.702 0.471033 15.0765C0.785055 14.451 1.21914 13.9765 1.7733 13.6529C2.71537 13.0922 3.7775 12.6176 4.9597 12.2294C6.1419 11.8412 7.44416 11.6471 8.8665 11.6471H9.25441C9.36524 11.6471 9.47607 11.6686 9.5869 11.7118C9.05122 13.2647 8.82956 14.8069 8.92192 16.3382C9.01427 17.8696 9.4576 19.3255 10.2519 20.7059H0ZM16.6247 18.1176C17.2343 18.1176 17.7563 17.864 18.1907 17.3567C18.6252 16.8494 18.842 16.2403 18.8413 15.5294C18.8413 14.8176 18.6241 14.2081 18.1896 13.7008C17.7552 13.1935 17.2335 12.9403 16.6247 12.9412C16.0151 12.9412 15.4931 13.1948 15.0586 13.7021C14.6242 14.2094 14.4073 14.8185 14.4081 15.5294C14.4081 16.2412 14.6253 16.8507 15.0597 17.358C15.4942 17.8653 16.0159 18.1185 16.6247 18.1176ZM8.8665 10.3529C7.64736 10.3529 6.60369 9.84608 5.73552 8.83235C4.86734 7.81863 4.43325 6.6 4.43325 5.17647C4.43325 3.75294 4.86734 2.53431 5.73552 1.52059C6.60369 0.506863 7.64736 0 8.8665 0C10.0856 0 11.1293 0.506863 11.9975 1.52059C12.8657 2.53431 13.2997 3.75294 13.2997 5.17647C13.2997 6.6 12.8657 7.81863 11.9975 8.83235C11.1293 9.84608 10.0856 10.3529 8.8665 10.3529Z" fill="currentColor"/>
</svg>
