<svg width="22" height="22" viewBox="0 0 22 22" fill="none" xmlns="http://www.w3.org/2000/svg">
<path d="M1.04205 18.6353V19.6353H2.04205H9.26129V19.7059H1V18.6353C1 17.2486 1.5434 15.9215 2.5063 14.9451C3.46874 13.9692 4.77112 13.4235 6.12614 13.4235H9.21024V13.4941H6.12614C4.77324 13.4941 3.4786 14.0392 2.52625 15.0049C1.57437 15.9701 1.04205 17.2762 1.04205 18.6353ZM13.0518 14.3797L13.0833 14.3244L13.4281 14.526L14.1058 14.9223L14.6516 14.3581C15.0449 13.9515 15.5387 13.6628 16.0791 13.5214L16.8259 13.3259V12.554V12.1294H16.8679V12.554V13.3265L17.6154 13.5216C18.1628 13.6644 18.6532 13.9569 19.042 14.3589L19.5882 14.9238L20.2662 14.5267L20.6108 14.3249L20.642 14.3797L20.2778 14.5928L19.6161 14.9801L19.8184 15.7197C19.9695 16.2725 19.9695 16.8569 19.8184 17.4097L19.6161 18.1493L20.2778 18.5366L20.642 18.7497L20.6108 18.8045L20.2662 18.6027L19.5882 18.2056L19.042 18.7705C18.6486 19.1773 18.1547 19.4663 17.6141 19.6082L16.8679 19.804V20.5754V21H16.8259V20.5754V19.8038L16.0794 19.6081C15.5389 19.4665 15.0452 19.1775 14.652 18.7707L14.1058 18.2055L13.4276 18.6027L13.0829 18.8045L13.0518 18.7497L13.4159 18.5366L14.0779 18.1492L13.8754 17.4095C13.7241 16.8568 13.7241 16.2726 13.8754 15.72L14.0779 14.9802L13.4159 14.5928L13.0518 14.3797ZM14.1879 15.0726L14.1878 15.0726L14.8038 16.5647H13.8038C13.8038 16.5649 13.8038 16.5651 13.8038 16.5652C13.8039 17.1 13.9414 17.6058 14.1815 18.0453L14.1814 18.0453L14.1879 18.0568L14.2246 18.122L14.2296 18.1308L14.2348 18.1396C14.5033 18.5942 14.8844 18.9722 15.3423 19.2353C15.8002 19.4985 16.3187 19.6373 16.8469 19.6373C17.3751 19.6373 17.8936 19.4985 18.3515 19.2353C18.8094 18.9722 19.1905 18.5942 19.459 18.1396L19.4642 18.1308L19.4691 18.122L19.5059 18.0568L19.506 18.0568L19.5123 18.0453C19.7533 17.6041 19.8889 17.099 19.8889 16.5647C19.8889 16.0317 19.7535 15.5255 19.5123 15.0841L19.5123 15.0841L19.5059 15.0726L19.4691 15.0074L19.4642 14.9986L19.459 14.9898C19.1905 14.5352 18.8094 14.1572 18.3515 13.8941C17.8936 13.6309 17.3751 13.4921 16.8469 13.4921C16.3187 13.4921 15.8002 13.6309 15.3423 13.8941C14.8844 14.1572 14.5033 14.5352 14.2348 14.9898L14.2296 14.9986L14.2246 15.0074L14.1879 15.0726ZM9.69973 1.07059C8.48222 1.07059 7.31743 1.56113 6.46082 2.42971C5.60468 3.29783 5.12614 4.47233 5.12614 5.69412C5.12614 6.91591 5.60468 8.09041 6.46082 8.95852C7.31743 9.82711 8.48222 10.3176 9.69973 10.3176C10.9172 10.3176 12.082 9.82711 12.9386 8.95852C13.7948 8.09041 14.2733 6.91591 14.2733 5.69412C14.2733 4.47233 13.7948 3.29783 12.9386 2.42971C12.082 1.56113 10.9172 1.07059 9.69973 1.07059ZM5.0841 5.69412C5.0841 4.44472 5.57371 3.24924 6.44087 2.36995C7.30757 1.49114 8.4801 1 9.69973 1C10.9194 1 12.0919 1.49114 12.9586 2.36995C13.8257 3.24924 14.3154 4.44472 14.3154 5.69412C14.3154 6.94352 13.8257 8.139 12.9586 9.01828C12.0919 9.8971 10.9194 10.3882 9.69973 10.3882C8.4801 10.3882 7.30757 9.8971 6.44087 9.01828C5.57371 8.139 5.0841 6.94352 5.0841 5.69412Z" stroke="currentColor" stroke-width="2"/>
</svg>
