<svg width="70" height="63" viewBox="0 0 70 63" fill="none" xmlns="http://www.w3.org/2000/svg">
<path id="Vector" d="M67.6572 42.6404L46.6051 7.70716C43.8418 3.12336 39.615 0.5 35 0.5C30.385 0.5 26.1582 3.12336 23.395 7.70007L2.34277 42.6404C-0.456121 47.2809 -0.76236 52.2299 1.50595 56.2181C3.7707 60.2099 8.19336 62.5 13.6345 62.5H56.3655C61.8066 62.5 66.2293 60.2099 68.4941 56.2217C70.7624 52.2334 70.4561 47.2845 67.6572 42.6404ZM35 50.2659C31.959 50.2659 29.4806 47.8021 29.4806 44.7746C29.4806 41.7435 31.9554 39.2761 35 39.2761C38.0446 39.2761 40.5194 41.7435 40.5194 44.7746C40.5194 47.8021 38.041 50.2659 35 50.2659ZM40.815 23.9472C40.7758 24.0571 35.8261 36.2416 35.8261 36.2416C35.6908 36.5748 35.3632 36.7946 35.0036 36.7946C34.6439 36.7946 34.3163 36.5748 34.181 36.2416L29.2277 24.0535C28.9286 23.3154 28.7727 22.5275 28.7684 21.7315C28.7684 18.3105 31.5637 15.5276 35 15.5276C36.0092 15.5302 37.0028 15.7765 37.8954 16.2454C38.788 16.7142 39.553 17.3917 40.1248 18.2196C40.6966 19.0475 41.0581 20.0012 41.1783 20.9988C41.2986 21.9964 41.1739 23.0081 40.815 23.9472Z" fill="#FF4545"/>
</svg>
