<svg width="556" height="509" viewBox="0 0 556 509" fill="none" xmlns="http://www.w3.org/2000/svg">
<circle cx="426.5" cy="356.5" r="129.5" fill="#FF9CA0" fill-opacity="0.8"/>
<path d="M304.269 45.5278C338.768 46.0933 387.688 60.2322 400.979 95.2967C415.266 132.989 413.577 141.05 436.892 182.109C460.174 223.111 447.732 280.798 422.848 305.305C387.6 340.018 356.957 331.403 294.372 331.133C250.541 330.945 201.565 362.729 176.736 371.005C160.052 376.566 124.422 382.599 101.8 359.411C76.8188 333.806 82.3828 286.454 78.0467 268.357C73.5047 249.399 43.4267 182.366 75.7844 130.078C114.808 67.0189 201.892 43.8492 304.269 45.5278Z" fill="url(#paint0_linear_557_560)"/>
<path d="M355.987 426.66C368.44 424.4 414.555 415.167 416.627 433.876C418.37 449.617 380.98 448.302 363.087 447.449C340.323 446.365 293.872 451.322 292.122 441.892C291.073 436.232 304.929 433.216 319.23 432.372C330.986 431.677 337.749 429.97 355.987 426.66Z" fill="url(#paint1_linear_557_560)"/>
<path d="M147.124 440.877C135.734 439.592 87.5621 432.19 89.9233 450.843C91.8083 465.736 127.346 459.91 143.463 461.212C166.226 463.05 205.09 460.631 205.852 451.099C206.31 445.38 193.592 443.449 180.662 443.717C170.033 443.937 163.805 442.76 147.124 440.877Z" fill="url(#paint2_linear_557_560)"/>
<path d="M219.318 282.379C219.318 281.789 219.796 281.311 220.385 281.311H232.39C232.979 281.311 233.457 281.789 233.457 282.379V294.384C233.457 294.667 233.345 294.938 233.145 295.138C232.945 295.338 232.673 295.451 232.39 295.451H220.385C220.102 295.451 219.831 295.338 219.631 295.138C219.43 294.938 219.318 294.667 219.318 294.384V282.379Z" fill="url(#paint3_linear_557_560)"/>
<path d="M225.893 292.517C225.806 292.517 225.72 292.496 225.642 292.458C225.564 292.419 225.496 292.363 225.443 292.294L221.979 287.77C221.931 287.711 221.896 287.643 221.874 287.571C221.853 287.498 221.846 287.422 221.855 287.346C221.864 287.271 221.888 287.198 221.925 287.132C221.963 287.066 222.013 287.008 222.074 286.962C222.134 286.916 222.203 286.883 222.276 286.864C222.35 286.845 222.426 286.841 222.501 286.852C222.576 286.864 222.648 286.89 222.713 286.93C222.777 286.969 222.833 287.022 222.878 287.083L225.845 290.959L229.866 284.512C229.948 284.392 230.074 284.307 230.217 284.277C230.36 284.247 230.509 284.274 230.633 284.351C230.757 284.429 230.847 284.551 230.883 284.692C230.918 284.834 230.898 284.984 230.826 285.111L226.372 292.251C226.324 292.329 226.257 292.394 226.178 292.44C226.099 292.486 226.01 292.513 225.919 292.517L225.893 292.517Z" fill="#FDE1A7"/>
<path d="M219.318 303.224C219.318 302.635 219.796 302.157 220.385 302.157H232.39C232.979 302.157 233.457 302.635 233.457 303.224V315.229C233.457 315.512 233.345 315.784 233.145 315.984C232.945 316.184 232.673 316.297 232.39 316.297H220.385C220.102 316.297 219.831 316.184 219.631 315.984C219.43 315.784 219.318 315.512 219.318 315.229V303.224Z" fill="url(#paint4_linear_557_560)"/>
<path d="M225.893 313.362C225.806 313.362 225.72 313.342 225.642 313.304C225.564 313.265 225.496 313.209 225.443 313.14L221.979 308.616C221.931 308.557 221.896 308.489 221.874 308.416C221.853 308.344 221.846 308.267 221.855 308.192C221.864 308.117 221.888 308.044 221.925 307.978C221.963 307.912 222.013 307.854 222.074 307.808C222.134 307.762 222.203 307.729 222.276 307.71C222.35 307.691 222.426 307.687 222.501 307.698C222.576 307.709 222.648 307.736 222.713 307.775C222.777 307.815 222.833 307.867 222.878 307.929L225.845 311.805L229.866 305.358C229.948 305.237 230.074 305.153 230.217 305.123C230.36 305.093 230.509 305.12 230.633 305.197C230.757 305.274 230.847 305.397 230.883 305.538C230.918 305.68 230.898 305.83 230.826 305.957L226.372 313.097C226.324 313.175 226.257 313.239 226.178 313.286C226.099 313.332 226.01 313.359 225.919 313.363L225.893 313.362Z" fill="#FDE1A7"/>
<path d="M219.318 324.071C219.318 323.481 219.796 323.003 220.385 323.003H232.39C232.979 323.003 233.457 323.481 233.457 324.071V336.076C233.457 336.359 233.345 336.63 233.145 336.83C232.945 337.031 232.673 337.143 232.39 337.143H220.385C220.102 337.143 219.831 337.031 219.631 336.83C219.43 336.63 219.318 336.359 219.318 336.076V324.071Z" fill="url(#paint5_linear_557_560)"/>
<path d="M225.893 334.208C225.806 334.208 225.72 334.188 225.642 334.15C225.564 334.111 225.496 334.055 225.443 333.986L221.979 329.462C221.931 329.403 221.896 329.335 221.874 329.262C221.853 329.19 221.846 329.113 221.855 329.038C221.864 328.962 221.888 328.89 221.925 328.824C221.963 328.758 222.013 328.7 222.074 328.654C222.134 328.608 222.203 328.574 222.276 328.556C222.35 328.537 222.426 328.533 222.501 328.544C222.576 328.555 222.648 328.582 222.713 328.621C222.777 328.661 222.833 328.713 222.878 328.775L225.845 332.651L229.866 326.204C229.946 326.077 230.072 325.986 230.218 325.952C230.365 325.919 230.518 325.944 230.645 326.024C230.773 326.103 230.863 326.23 230.897 326.376C230.931 326.522 230.905 326.676 230.826 326.803L226.372 333.943C226.324 334.021 226.257 334.085 226.178 334.132C226.099 334.178 226.01 334.204 225.919 334.209L225.893 334.208Z" fill="#FDE1A7"/>
<path d="M196.708 202.964H276.592V274.154H196.708V202.964Z" fill="url(#paint6_linear_557_560)"/>
<path d="M204.837 209.02H234.765V211.848H204.837V209.02Z" fill="url(#paint7_linear_557_560)"/>
<path d="M268.462 212.649C268.462 212.349 268.343 212.062 268.131 211.85C267.919 211.638 267.631 211.518 267.331 211.518H260.545C260.245 211.518 259.957 211.638 259.745 211.85C259.533 212.062 259.414 212.349 259.414 212.649V266.377H268.462V212.649Z" fill="url(#paint8_linear_557_560)"/>
<path d="M268.462 233.104V212.649C268.462 212.349 268.343 212.062 268.131 211.85C267.919 211.638 267.631 211.518 267.331 211.518H260.545C260.245 211.518 259.957 211.638 259.745 211.85C259.533 212.062 259.414 212.349 259.414 212.649V233.104H268.462Z" fill="url(#paint9_linear_557_560)"/>
<path d="M241.174 224.668C241.174 224.368 241.055 224.08 240.843 223.868C240.631 223.656 240.343 223.536 240.043 223.536H233.257C232.957 223.536 232.669 223.656 232.457 223.868C232.245 224.08 232.125 224.368 232.125 224.668V266.377H241.174V224.668Z" fill="url(#paint10_linear_557_560)"/>
<path d="M241.174 248.751V224.668C241.174 224.368 241.055 224.08 240.843 223.868C240.631 223.656 240.343 223.536 240.043 223.536H233.257C232.957 223.536 232.669 223.656 232.457 223.868C232.245 224.08 232.125 224.368 232.125 224.668V248.751H241.174Z" fill="url(#paint11_linear_557_560)"/>
<path d="M254.818 232.585C254.818 232.285 254.699 231.998 254.487 231.785C254.275 231.573 253.987 231.454 253.687 231.454H246.901C246.601 231.454 246.313 231.573 246.101 231.785C245.889 231.998 245.77 232.285 245.77 232.585V266.377H254.818V232.585Z" fill="url(#paint12_linear_557_560)"/>
<path d="M254.818 248.751V232.585C254.818 232.285 254.699 231.998 254.487 231.785C254.275 231.573 253.987 231.454 253.687 231.454H246.901C246.601 231.454 246.313 231.573 246.101 231.785C245.889 231.998 245.77 232.285 245.77 232.585V248.751H254.818Z" fill="url(#paint13_linear_557_560)"/>
<path d="M227.53 217.033C227.53 216.733 227.411 216.445 227.199 216.233C226.987 216.021 226.699 215.901 226.399 215.901H219.613C219.313 215.901 219.025 216.021 218.813 216.233C218.601 216.445 218.481 216.733 218.481 217.033V266.377H227.53V217.033Z" fill="url(#paint14_linear_557_560)"/>
<path d="M227.53 234.518V217.033C227.53 216.733 227.411 216.445 227.199 216.233C226.987 216.021 226.699 215.901 226.399 215.901H219.613C219.313 215.901 219.025 216.021 218.813 216.233C218.601 216.445 218.481 216.733 218.481 217.033V234.518H227.53Z" fill="url(#paint15_linear_557_560)"/>
<path d="M213.886 241.917C213.886 241.617 213.767 241.329 213.555 241.117C213.343 240.905 213.055 240.786 212.755 240.786H205.969C205.669 240.786 205.381 240.905 205.169 241.117C204.957 241.329 204.837 241.617 204.837 241.917V266.377H213.886V241.917Z" fill="url(#paint16_linear_557_560)"/>
<path d="M213.886 256.197V241.917C213.886 241.617 213.767 241.329 213.555 241.117C213.343 240.905 213.055 240.786 212.755 240.786H205.969C205.669 240.786 205.381 240.905 205.169 241.117C204.957 241.329 204.837 241.617 204.837 241.917V256.197H213.886Z" fill="url(#paint17_linear_557_560)"/>
<path d="M268.462 266.943H204.979C204.829 266.943 204.685 266.883 204.579 266.777C204.473 266.671 204.413 266.527 204.413 266.377C204.413 266.227 204.473 266.083 204.579 265.977C204.685 265.871 204.829 265.812 204.979 265.812H268.462C268.612 265.812 268.756 265.871 268.862 265.977C268.968 266.083 269.028 266.227 269.028 266.377C269.028 266.527 268.968 266.671 268.862 266.777C268.756 266.883 268.612 266.943 268.462 266.943Z" fill="#1AA9E8"/>
<path d="M89.6406 96.145H169.808V143.793H89.6406V96.145Z" fill="url(#paint18_linear_557_560)"/>
<path d="M100.561 136.724H123.951V106.985L100.561 136.724ZM145.631 129.513V136.724H160.052V112.358L145.631 129.513Z" fill="#00E2EC"/>
<path d="M123.951 106.985V136.724H145.631V129.513L123.951 106.985ZM167.028 121.666L160.052 112.358V136.724H167.028V121.666Z" fill="#0090B2"/>
<path d="M133.33 102.366H164.011V105.194H133.33V102.366Z" fill="url(#paint19_linear_557_560)"/>
<path d="M115.592 129.141C115.495 129.141 115.401 129.117 115.317 129.07C115.232 129.024 115.162 128.956 115.111 128.874L101.73 107.357C101.689 107.294 101.661 107.223 101.647 107.149C101.634 107.075 101.636 106.999 101.652 106.925C101.668 106.852 101.699 106.783 101.743 106.721C101.786 106.66 101.841 106.608 101.905 106.568C101.969 106.528 102.04 106.502 102.115 106.49C102.189 106.478 102.265 106.481 102.338 106.499C102.411 106.517 102.48 106.549 102.54 106.594C102.601 106.638 102.652 106.695 102.69 106.759L116.071 128.277C116.124 128.363 116.154 128.461 116.156 128.562C116.159 128.662 116.134 128.762 116.085 128.85C116.037 128.938 115.965 129.012 115.878 129.063C115.791 129.114 115.692 129.141 115.592 129.141Z" fill="#1AA9E8"/>
<path d="M102.21 110.098C103.889 110.098 105.25 108.737 105.25 107.058C105.25 105.379 103.889 104.018 102.21 104.018C100.531 104.018 99.1702 105.379 99.1702 107.058C99.1702 108.737 100.531 110.098 102.21 110.098Z" fill="#F95FC3"/>
<path d="M115.591 130.514C116.661 130.514 117.529 129.646 117.529 128.576C117.529 127.505 116.661 126.638 115.591 126.638C114.521 126.638 113.653 127.505 113.653 128.576C113.653 129.646 114.521 130.514 115.591 130.514Z" fill="white"/>
<path d="M179.864 154.317C177.195 147.671 176.515 140.391 177.907 133.365C180.021 122.634 186.562 113.902 195.257 108.687L187.12 92.6974C173.699 100.343 163.554 113.561 160.336 129.905C158.119 141.162 159.506 152.292 163.694 162.105L179.864 154.317ZM199.79 106.374C206.413 103.545 213.924 102.606 221.522 104.102C232.545 106.273 241.452 113.119 246.61 122.17L262.782 114.381C255.237 100.432 241.756 89.834 224.982 86.5306C213.291 84.2282 201.737 85.8117 191.654 90.3843L199.79 106.374ZM264.993 118.966L248.824 126.753C251.496 133.403 252.178 140.687 250.784 147.717C246.821 167.842 227.294 180.943 207.17 176.98C196.142 174.808 187.233 167.958 182.075 158.902L165.903 166.691C173.446 180.644 186.931 191.247 203.709 194.552C233.538 200.426 262.482 181.007 268.356 151.178C270.574 139.916 269.185 128.781 264.993 118.966Z" fill="white"/>
<path d="M183.175 160.721C179.272 154.715 177.199 147.704 177.207 140.541C177.207 129.604 181.937 119.772 189.461 112.976L178.388 98.8597C166.697 108.954 159.297 123.883 159.297 140.541C159.297 152.015 162.809 162.667 168.814 171.486L183.175 160.721Z" fill="url(#paint20_linear_557_560)"/>
<path d="M193.463 109.83C199.414 105.775 206.602 103.403 214.346 103.403C225.581 103.403 235.643 108.398 242.453 116.282L256.814 105.515C246.717 93.2867 231.442 85.4933 214.346 85.4933C202.431 85.4933 191.4 89.2797 182.391 95.7141L193.463 109.83Z" fill="url(#paint21_linear_557_560)"/>
<path d="M259.869 109.586L245.509 120.351C249.417 126.359 251.492 133.374 251.484 140.541C251.484 161.052 234.857 177.679 214.346 177.679C203.106 177.679 193.041 172.68 186.231 164.791L171.869 175.557C181.966 187.791 197.245 195.588 214.345 195.588C244.747 195.588 269.392 170.943 269.392 140.541C269.393 129.063 265.878 118.406 259.869 109.586Z" fill="url(#paint22_linear_557_560)"/>
<path d="M192.815 148.635C196.091 157.343 204.493 163.541 214.346 163.541C221.416 163.541 227.739 160.347 231.958 155.327L214.346 140.541L192.815 148.635Z" fill="url(#paint23_linear_557_560)"/>
<path d="M222.503 119.036L214.346 140.541L231.958 155.327C235.318 151.329 237.345 146.172 237.345 140.541C237.345 130.712 231.177 122.328 222.503 119.036Z" fill="url(#paint24_linear_557_560)"/>
<path d="M222.503 119.036C219.898 118.046 217.133 117.54 214.346 117.542C201.644 117.542 191.347 127.839 191.347 140.541C191.347 143.39 191.868 146.117 192.815 148.635L214.346 140.541L222.503 119.036Z" fill="url(#paint25_linear_557_560)"/>
<path d="M281.144 71.7554H404.483V149.024H281.144V71.7554Z" fill="url(#paint26_linear_557_560)"/>
<path d="M293.632 87.4564C295.311 87.4564 296.672 86.0954 296.672 84.4165C296.672 82.7376 295.311 81.3766 293.632 81.3766C291.954 81.3766 290.593 82.7376 290.593 84.4165C290.593 86.0954 291.954 87.4564 293.632 87.4564Z" fill="#FDE1A7"/>
<path d="M309.943 87.4564C311.622 87.4564 312.983 86.0954 312.983 84.4165C312.983 82.7376 311.622 81.3766 309.943 81.3766C308.264 81.3766 306.903 82.7376 306.903 84.4165C306.903 86.0954 308.264 87.4564 309.943 87.4564Z" fill="#00E2EC"/>
<path d="M326.254 87.4564C327.933 87.4564 329.294 86.0954 329.294 84.4165C329.294 82.7376 327.933 81.3766 326.254 81.3766C324.575 81.3766 323.214 82.7376 323.214 84.4165C323.214 86.0954 324.575 87.4564 326.254 87.4564Z" fill="#C7A0F6"/>
<path d="M290.593 92.5628H329.295V95.3906H290.593V92.5628Z" fill="url(#paint27_linear_557_560)"/>
<path d="M395.033 90.8305C393.159 87.1419 390.349 83.761 386.36 83.8911C377.689 84.1739 372.033 106.796 366 107.079C359.968 107.362 362.042 84.2683 354.313 84.4567C344.604 84.6936 344.226 129.418 332.067 130.455C319.908 131.492 317.174 106.419 311.707 106.796C306.24 107.173 303.89 126.455 302.941 130.644C301.992 134.832 297.192 135.639 297.192 135.639H395.033V90.8305Z" fill="url(#paint28_linear_557_560)"/>
<path d="M395.033 90.5833C381.647 91.1489 378.819 127.156 365.058 126.308C353.642 125.604 355.538 106.231 345.547 105.665C335.554 105.099 330.842 128.57 318.777 129.324C312.91 129.69 308.22 126.025 302.847 126.496C297.474 126.967 291.913 134.131 290.593 135.639H395.033V90.5833Z" fill="url(#paint29_linear_557_560)"/>
<path d="M213.966 61.882H263.923V77.7175H213.966V61.882Z" fill="url(#paint30_linear_557_560)"/>
<path d="M259.342 72.5568C257.365 72.5568 256.371 71.2764 255.495 70.1464C254.674 69.0877 253.964 68.1738 252.542 68.1738C251.119 68.1738 250.41 69.0877 249.589 70.1464C248.712 71.2764 247.719 72.5568 245.742 72.5568C243.765 72.5568 242.772 71.2764 241.895 70.1464C241.074 69.0877 240.365 68.1738 238.943 68.1738C237.52 68.1738 236.811 69.0877 235.99 70.1464C235.114 71.2764 234.12 72.5568 232.144 72.5568C230.168 72.5568 229.174 71.2764 228.298 70.1464C227.478 69.0877 226.769 68.1738 225.347 68.1738C223.924 68.1738 223.215 69.0877 222.395 70.1464C221.519 71.2764 220.525 72.5568 218.548 72.5568C218.398 72.5568 218.254 72.4972 218.148 72.3912C218.042 72.2851 217.983 72.1413 217.983 71.9913C217.983 71.8413 218.042 71.6974 218.148 71.5914C218.254 71.4853 218.398 71.4257 218.548 71.4257C219.971 71.4257 220.68 70.5118 221.501 69.453C222.377 68.3231 223.37 67.0426 225.347 67.0426C227.323 67.0426 228.316 68.3236 229.193 69.453C230.013 70.5118 230.722 71.4257 232.144 71.4257C233.567 71.4257 234.275 70.5118 235.096 69.453C235.972 68.3231 236.966 67.0426 238.943 67.0426C240.919 67.0426 241.913 68.3231 242.789 69.453C243.61 70.5118 244.319 71.4257 245.742 71.4257C247.165 71.4257 247.874 70.5118 248.695 69.453C249.572 68.3231 250.565 67.0426 252.542 67.0426C254.519 67.0426 255.512 68.3231 256.388 69.453C257.21 70.5118 257.919 71.4257 259.342 71.4257C259.492 71.4257 259.636 71.4853 259.742 71.5914C259.848 71.6974 259.907 71.8413 259.907 71.9913C259.907 72.1413 259.848 72.2851 259.742 72.3912C259.636 72.4972 259.492 72.5568 259.342 72.5568Z" fill="#05C5DA"/>
<path d="M220.987 95.192C220.874 95.1922 220.764 95.1586 220.67 95.0955C220.577 95.0325 220.504 94.943 220.462 94.8384C220.42 94.7338 220.41 94.619 220.433 94.5087C220.457 94.3983 220.513 94.2976 220.594 94.2193L238.13 77.3103C238.238 77.2061 238.383 77.1491 238.533 77.1518C238.683 77.1544 238.826 77.2165 238.93 77.3245C239.034 77.4324 239.091 77.5773 239.088 77.7272C239.086 77.8772 239.023 78.02 238.916 78.1241L221.379 95.0331C221.274 95.1353 221.133 95.1923 220.987 95.192Z" fill="#1AA9E8"/>
<path d="M220.987 96.865C222.223 96.865 223.225 95.8628 223.225 94.6265C223.225 93.3902 222.223 92.388 220.987 92.388C219.751 92.388 218.748 93.3902 218.748 94.6265C218.748 95.8628 219.751 96.865 220.987 96.865Z" fill="#FDE1A7"/>
<path d="M311.897 239.223C312.111 239.588 312.46 239.853 312.869 239.96C313.278 240.067 313.713 240.007 314.077 239.794L340.043 228.07C340.224 227.965 340.382 227.825 340.508 227.658C340.635 227.491 340.727 227.301 340.78 227.099C340.833 226.897 340.846 226.686 340.817 226.478C340.789 226.271 340.72 226.071 340.614 225.891L328.817 206.254C328.712 206.074 328.572 205.916 328.405 205.789C328.238 205.663 328.048 205.57 327.846 205.517C327.643 205.464 327.433 205.452 327.225 205.48C327.018 205.509 326.818 205.578 326.638 205.683L297.751 213.689C297.571 213.795 297.413 213.935 297.286 214.102C297.159 214.268 297.067 214.458 297.014 214.661C296.961 214.863 296.948 215.074 296.976 215.281C297.005 215.489 297.074 215.688 297.179 215.869L311.897 239.223Z" fill="url(#paint31_linear_557_560)"/>
<path d="M342.028 226.218L329.464 205.304C329.237 204.916 328.864 204.633 328.429 204.519C327.994 204.405 327.531 204.469 327.142 204.696L296.376 213.223C296.184 213.335 296.015 213.485 295.881 213.662C295.746 213.84 295.647 214.042 295.591 214.257C295.534 214.473 295.521 214.698 295.551 214.918C295.582 215.139 295.655 215.352 295.767 215.544L311.443 240.417C311.67 240.805 312.043 241.087 312.478 241.201C312.913 241.315 313.376 241.252 313.765 241.025L341.42 228.539C341.809 228.311 342.091 227.939 342.205 227.504C342.318 227.069 342.255 226.606 342.028 226.218ZM313.595 236.881L300.31 215.407L327.315 207.277L338.838 226.152L313.595 236.881Z" fill="url(#paint32_linear_557_560)"/>
<path d="M331.946 219.648L311.429 227.745L309.767 225.362L330.593 217.568L331.946 219.648Z" fill="#FDE1A7"/>
<path d="M317.936 219.913C319.195 219.913 320.216 218.893 320.216 217.633C320.216 216.374 319.195 215.353 317.936 215.353C316.677 215.353 315.656 216.374 315.656 217.633C315.656 218.893 316.677 219.913 317.936 219.913Z" fill="#F95FC3"/>
<path d="M310.168 222.9C311.427 222.9 312.448 221.879 312.448 220.619C312.448 219.36 311.427 218.339 310.168 218.339C308.908 218.339 307.887 219.36 307.887 220.619C307.887 221.879 308.908 222.9 310.168 222.9Z" fill="#FE687E"/>
<path d="M325.23 217.022C326.363 217.022 327.281 216.103 327.281 214.97C327.281 213.837 326.363 212.918 325.23 212.918C324.096 212.918 323.178 213.837 323.178 214.97C323.178 216.103 324.096 217.022 325.23 217.022Z" fill="#00E2EC"/>
<path d="M359.599 373.644C358.935 362.349 361.475 348.498 361.381 344.162L342.916 343.104C342.916 343.104 342.56 356.316 342.727 367.753C342.916 380.667 345.602 417.711 344.801 423.507C344.302 427.12 341.351 429.451 338.62 431.172C339.932 431.844 342.256 432.307 345.58 430.662C349.34 428.801 353.575 426.722 356.562 426.618C356.441 424.668 356.32 422.842 356.3 421.623C356.206 415.731 360.4 387.265 359.599 373.644Z" fill="url(#paint33_linear_557_560)"/>
<path d="M345.58 430.662C342.256 432.306 339.932 431.844 338.62 431.172C337.908 431.62 337.211 432.028 336.577 432.405C334.161 433.84 330.29 434.404 330.71 435.902C331.039 437.081 340.169 437.616 345.061 436.223C347.37 435.565 351.328 433.442 351.328 433.442L351.481 436.328C351.481 436.328 355.87 436.655 356.342 436.137C357.058 435.348 356.812 430.706 356.562 426.617C353.575 426.722 349.34 428.801 345.58 430.662Z" fill="url(#paint34_linear_557_560)"/>
<path d="M381.61 431.048C385.536 429.105 389.982 426.924 392.98 427.005C392.858 425.056 392.714 423.227 392.637 421.999C392.402 418.229 392.308 411.726 392.779 398.058C393.251 384.39 390.8 374.776 389.952 366.669C389.103 358.563 389.103 349.986 389.008 345.65L371.429 347.817C371.429 347.817 372.781 360.761 373.974 372.136C375.101 382.882 381.939 417.334 381.138 423.13C380.645 426.693 377.118 429.611 374.498 431.481C375.779 432.193 378.158 432.756 381.61 431.048Z" fill="url(#paint35_linear_557_560)"/>
<path d="M367.046 436.892C367.046 437.694 376.199 438.003 381.091 436.609C383.4 435.952 387.358 433.829 387.358 433.829L387.511 436.715C387.511 436.715 392.213 436.892 392.684 436.374C393.396 435.589 393.234 431.04 392.98 427.005C389.981 426.924 385.536 429.105 381.609 431.048C378.157 432.757 375.779 432.193 374.498 431.481C373.77 432.001 373.108 432.444 372.607 432.792C370.298 434.394 367.046 435.337 367.046 436.892Z" fill="url(#paint36_linear_557_560)"/>
<path d="M383.447 278.066C385.426 281.082 390.8 290.697 392.778 300.735C394.605 309.995 394.475 315.298 395.465 322.509C396.454 329.719 401.544 345.555 401.262 346.545C400.979 347.534 398.717 349.019 394.287 349.137C390.976 349.225 388.538 348.949 382.599 350.928C376.661 352.908 369.968 354.039 361.862 353.191C353.756 352.342 347.346 348.949 343.293 348.854C339.239 348.76 333.867 348.76 333.301 347.629C332.736 346.498 336.416 337.75 337.213 332.264C338.113 326.072 340.088 314.261 344.423 302.573C348.487 291.618 354.227 279.008 354.227 279.008C354.227 279.008 362.663 278.961 368.742 278.819C374.822 278.678 383.447 278.066 383.447 278.066Z" fill="url(#paint37_linear_557_560)"/>
<path d="M367.281 349.805C365.487 349.805 363.666 349.707 361.802 349.511C357.329 349.043 353.297 347.788 350.058 346.78C347.368 345.943 345.044 345.219 343.28 345.178L342.162 345.154C339.016 345.09 335.451 345.017 333.834 344.423C333.765 344.398 333.701 344.359 333.646 344.308C333.592 344.258 333.547 344.197 333.516 344.13C333.485 344.063 333.467 343.99 333.464 343.916C333.461 343.841 333.473 343.767 333.498 343.698C333.524 343.628 333.563 343.564 333.613 343.509C333.664 343.455 333.724 343.411 333.792 343.379C333.859 343.348 333.932 343.331 334.006 343.328C334.08 343.325 334.154 343.336 334.224 343.362C335.662 343.889 339.279 343.964 342.185 344.023L343.305 344.047C345.228 344.092 347.622 344.837 350.393 345.7C353.752 346.745 357.557 347.93 361.919 348.387C369.078 349.136 375.594 348.425 382.419 346.151C387.622 344.417 390.208 344.385 392.946 344.353C393.379 344.348 393.816 344.342 394.271 344.33C398.238 344.224 399.891 343.043 400.303 342.683C400.359 342.634 400.424 342.596 400.495 342.573C400.565 342.549 400.639 342.54 400.713 342.545C400.787 342.55 400.86 342.569 400.926 342.602C400.993 342.636 401.052 342.681 401.101 342.737C401.15 342.793 401.187 342.858 401.211 342.929C401.234 342.999 401.244 343.074 401.239 343.148C401.234 343.222 401.214 343.294 401.181 343.361C401.148 343.427 401.102 343.487 401.046 343.535C400.426 344.077 398.527 345.348 394.3 345.461C393.84 345.473 393.397 345.478 392.959 345.484C390.311 345.515 387.811 345.545 382.776 347.223C377.571 348.959 372.54 349.805 367.281 349.805Z" fill="#CFAEFF"/>
<path d="M369.086 346.037C366.834 346.037 364.473 345.907 361.991 345.647C357.303 345.156 353.131 343.869 349.451 342.735C346.79 341.914 344.492 341.205 342.672 341.029C341.168 340.884 339.802 341.005 338.597 341.111C337.171 341.239 335.937 341.348 334.909 340.971C334.838 340.946 334.772 340.908 334.716 340.858C334.659 340.808 334.614 340.747 334.581 340.679C334.549 340.611 334.53 340.537 334.527 340.462C334.523 340.386 334.535 340.311 334.561 340.24C334.587 340.17 334.626 340.105 334.678 340.05C334.729 339.995 334.791 339.95 334.86 339.919C334.929 339.889 335.003 339.872 335.078 339.87C335.154 339.868 335.229 339.881 335.299 339.909C336.088 340.2 337.206 340.1 338.497 339.985C339.75 339.873 341.171 339.747 342.781 339.903C344.716 340.089 347.064 340.814 349.784 341.653C353.415 342.773 357.531 344.043 362.109 344.522C370.122 345.358 376.838 344.827 382.641 342.893C387.796 341.176 389.235 341.221 391.403 341.287C391.77 341.298 392.16 341.31 392.595 341.314C396.721 341.352 398.437 340.267 399.373 339.45C399.429 339.401 399.494 339.364 399.564 339.34C399.635 339.316 399.709 339.307 399.783 339.312C399.857 339.317 399.93 339.337 399.996 339.37C400.063 339.403 400.122 339.449 400.171 339.505C400.219 339.561 400.257 339.626 400.28 339.696C400.304 339.767 400.314 339.841 400.309 339.915C400.303 339.989 400.284 340.062 400.251 340.128C400.218 340.195 400.172 340.254 400.116 340.303C399.057 341.227 397.149 342.446 392.792 342.446L392.585 342.445C392.179 342.441 391.774 342.431 391.368 342.417C389.244 342.352 387.961 342.312 382.999 343.966C378.849 345.35 374.255 346.036 369.086 346.037Z" fill="#CFAEFF"/>
<path d="M330.332 217.952C329.472 218.238 328.022 219.012 328.305 220.426C328.588 221.84 331.135 224.323 331.983 224.699C332.832 225.076 332.265 222.829 331.511 221.84C330.756 220.85 332.861 223.102 333.536 222.876C334.031 222.711 334.197 221.769 333.655 220.284C333.172 218.964 335.328 217.739 334.385 217.551C333.442 217.362 331.463 217.574 330.332 217.952Z" fill="url(#paint38_linear_557_560)"/>
<path d="M343.594 234.311C343.838 233.991 350.714 229.224 351.224 229.038C351.941 228.776 363.087 243.33 364.642 244.956C366.197 246.582 362.586 254.696 359.617 255.261C356.648 255.827 342.951 235.154 343.594 234.311Z" fill="url(#paint39_linear_557_560)"/>
<path d="M323.922 217.315C324.922 216.315 329.908 216.891 330.567 217.079C331.228 217.268 332.877 215.901 333.867 215.854C334.856 215.806 337.884 216.361 339.664 217.362C341.635 218.472 351.493 229.333 351.493 229.333C351.493 229.333 351.353 232.161 348.877 233.858C346.396 235.558 344.805 234.781 344.805 234.781C344.805 234.781 341.313 228.414 340.111 227.637C338.909 226.859 335.94 228.167 333.496 227.568C331.19 227.003 327.987 224.031 328.872 223.254C329.811 222.428 332.055 224.333 333.066 224.668C334.562 225.162 337.366 224.569 337.425 223.43C337.495 222.051 333.027 220.773 329.648 219.754C327.259 219.034 323.109 218.128 323.922 217.315Z" fill="url(#paint40_linear_557_560)"/>
<path d="M345.663 235.52C344.15 235.52 343.28 234.788 343.223 234.738C343.115 234.638 343.05 234.5 343.042 234.354C343.034 234.207 343.083 234.063 343.18 233.952C343.276 233.841 343.412 233.771 343.558 233.759C343.705 233.746 343.85 233.791 343.964 233.884C344.029 233.938 345.676 235.26 348.569 233.383C350.797 231.938 350.927 229.338 350.928 229.312C350.93 229.238 350.948 229.165 350.979 229.098C351.01 229.03 351.054 228.97 351.108 228.919C351.162 228.869 351.226 228.83 351.296 228.804C351.366 228.778 351.44 228.767 351.514 228.769C351.825 228.781 352.069 229.042 352.058 229.353C352.053 229.483 351.918 232.559 349.185 234.333C347.791 235.237 346.603 235.52 345.663 235.52Z" fill="#1AA9E8"/>
<path d="M379.677 221.416C381.184 224.526 386.84 235.366 386.463 243.755C386.087 252.144 383.823 260.816 383.541 267.32C383.258 273.824 383.447 278.066 383.447 278.066C383.447 278.066 377.227 281.93 367.8 281.647C358.661 281.374 354.227 279.008 354.227 279.008C354.227 279.008 353.956 269.031 352.813 262.23C351.917 256.904 349.725 253.794 349.702 247.808C349.671 240.149 361.461 230.252 364.972 224.903C367.859 220.506 379.677 221.416 379.677 221.416Z" fill="url(#paint41_linear_557_560)"/>
<path d="M368.8 282.228C368.465 282.228 368.127 282.222 367.783 282.213C358.617 281.938 354.146 279.606 353.961 279.507C353.828 279.436 353.73 279.316 353.686 279.172C353.642 279.029 353.657 278.874 353.728 278.741C353.798 278.609 353.919 278.51 354.062 278.466C354.206 278.423 354.361 278.438 354.493 278.508C354.536 278.532 358.947 280.816 367.818 281.082C376.948 281.363 383.089 277.623 383.149 277.585C383.277 277.507 383.429 277.483 383.574 277.518C383.719 277.553 383.845 277.643 383.923 277.77C384.002 277.896 384.027 278.049 383.994 278.194C383.961 278.34 383.872 278.466 383.746 278.546C383.495 278.702 377.712 282.228 368.8 282.228Z" fill="#1AA9E8"/>
<path d="M388.678 190.381C390.092 190.451 394.421 189.33 397.656 188.613C404.043 187.199 410.32 187.284 411.937 191.724C413.327 195.541 411.014 198.711 411.395 201.385C411.913 205.014 422.754 208.078 422.965 215.336C423.168 222.294 417.451 224.809 415.895 227.849C414.34 230.889 411.244 240.114 400.484 239.372C394.335 238.948 392.638 235.319 392.637 232.797C392.637 229.56 395.748 227.071 394.263 224.738C392.778 222.405 388.02 223.95 386.981 221.203C385.851 218.211 388.395 215.76 390.304 214.275C392.213 212.791 395.041 211.236 394.404 209.044C393.768 206.853 389.88 206.301 390.021 204.095C390.187 201.527 394.904 199.62 394.122 197.026C393.533 195.07 390.163 195.471 387.264 194.905C384.366 194.34 388.678 190.381 388.678 190.381Z" fill="url(#paint42_linear_557_560)"/>
<path d="M378.263 208.596C377.897 211.872 379.677 221.416 379.677 221.416C379.677 221.416 375.246 226.011 368.742 226.317C365.551 226.468 364.972 224.903 364.972 224.903L366.292 211.801C366.292 211.801 368.28 208.072 372.324 206.523C376.368 204.973 377.886 206.428 377.886 206.428L378.263 208.596Z" fill="url(#paint43_linear_557_560)"/>
<path d="M376.472 184.843C370.722 182.392 366.438 182.499 366.438 182.499C361.956 184.937 350.038 207.227 357.526 212.649C362.148 215.996 370.076 212.582 375.346 208.032C375.677 208.136 376.022 208.188 376.369 208.188C378.205 208.188 379.691 206.748 379.691 204.971C379.691 204.464 379.566 203.986 379.351 203.559C379.837 202.794 380.211 202.045 380.431 201.337C381.729 197.169 382.222 187.294 376.472 184.843Z" fill="url(#paint44_linear_557_560)"/>
<path d="M367.54 198.334C367.407 198.334 367.276 198.303 367.157 198.242C367.038 198.182 366.935 198.095 366.856 197.987C366.777 197.88 366.725 197.755 366.703 197.624C366.682 197.492 366.691 197.357 366.731 197.23C366.992 196.404 367.943 194.866 368.546 194.29C368.627 194.214 368.722 194.153 368.826 194.113C368.93 194.073 369.041 194.054 369.152 194.057C369.263 194.06 369.373 194.084 369.475 194.13C369.577 194.175 369.669 194.24 369.746 194.32C369.822 194.401 369.882 194.496 369.923 194.6C369.963 194.704 369.982 194.815 369.979 194.926C369.976 195.038 369.952 195.147 369.906 195.249C369.861 195.351 369.796 195.443 369.716 195.52C369.325 195.891 368.52 197.2 368.349 197.741C368.295 197.913 368.187 198.063 368.042 198.17C367.897 198.277 367.721 198.334 367.54 198.334ZM359.517 193.857C359.406 193.857 359.297 193.83 359.198 193.78C359.099 193.73 359.013 193.657 358.947 193.567C358.881 193.478 358.838 193.374 358.82 193.264C358.802 193.155 358.81 193.042 358.843 192.936C359.095 192.139 359.86 190.904 360.448 190.345C360.584 190.215 360.765 190.145 360.953 190.15C361.14 190.155 361.318 190.234 361.447 190.37C361.577 190.506 361.647 190.687 361.642 190.875C361.637 191.062 361.558 191.24 361.422 191.369C361.013 191.758 360.369 192.802 360.192 193.362C360.147 193.506 360.057 193.631 359.936 193.72C359.814 193.809 359.668 193.857 359.517 193.857Z" fill="#0090B2"/>
<path d="M367.587 201.677C367.016 201.681 366.453 201.543 365.949 201.275C364.905 200.717 364.221 199.657 364.022 198.289C363.829 196.968 364.115 195.51 364.825 194.181C365.932 192.111 367.849 190.773 369.71 190.773C370.298 190.773 370.85 190.908 371.348 191.175C373.457 192.302 373.961 195.485 372.473 198.27C371.366 200.339 369.449 201.677 367.587 201.677ZM369.709 191.621C368.182 191.621 366.519 192.811 365.573 194.581C364.948 195.75 364.695 197.023 364.861 198.166C365.021 199.26 365.549 200.098 366.349 200.526C366.73 200.728 367.156 200.831 367.587 200.828C369.116 200.828 370.779 199.638 371.725 197.869C372.992 195.496 372.643 192.829 370.948 191.922C370.566 191.721 370.141 191.617 369.709 191.621ZM358.103 196.34C357.698 196.344 357.298 196.246 356.94 196.057C355.245 195.151 354.992 192.43 356.363 189.863C357.401 187.922 359.132 186.618 360.671 186.618C361.091 186.618 361.482 186.713 361.834 186.901C362.675 187.35 363.186 188.266 363.273 189.478C363.355 190.618 363.048 191.903 362.41 193.095C361.374 195.036 359.642 196.34 358.103 196.34ZM360.671 187.466C359.456 187.466 357.993 188.616 357.112 190.262C356.003 192.338 356.107 194.649 357.34 195.308C357.575 195.431 357.837 195.494 358.103 195.491C359.319 195.491 360.783 194.341 361.663 192.694C362.226 191.641 362.497 190.52 362.427 189.537C362.362 188.626 362.01 187.955 361.435 187.649C361.199 187.526 360.937 187.463 360.671 187.466Z" fill="#9F36AD"/>
<path d="M363.229 192.101C361.001 193.95 354.819 197.003 354.651 198.086C354.427 199.535 357.739 200.343 358.494 200.343C359.248 200.343 359.8 198.298 361.815 195.493C362.951 193.914 364.413 191.117 363.229 192.101Z" fill="url(#paint45_linear_557_560)"/>
<path d="M365.48 194.324C365.395 194.324 365.313 194.298 365.242 194.251C365.172 194.203 365.118 194.136 365.086 194.057C364.505 192.603 363.759 192.168 362.509 192.557C362.402 192.587 362.288 192.575 362.191 192.522C362.093 192.469 362.021 192.381 361.988 192.275C361.955 192.169 361.965 192.055 362.015 191.956C362.065 191.858 362.152 191.783 362.257 191.747C363.945 191.222 365.127 191.875 365.874 193.742C365.9 193.807 365.909 193.876 365.902 193.945C365.895 194.014 365.87 194.08 365.831 194.138C365.793 194.195 365.74 194.242 365.679 194.274C365.618 194.307 365.549 194.324 365.48 194.324Z" fill="#9F36AD"/>
<path d="M355.68 203.54C355.76 203.873 355.965 204.215 356.202 204.498C356.442 204.783 356.735 205.015 357.059 205.159C357.707 205.461 358.46 205.346 359.13 205.017C359.18 204.992 359.234 204.977 359.29 204.974C359.346 204.97 359.401 204.977 359.454 204.995C359.507 205.013 359.556 205.041 359.598 205.078C359.64 205.114 359.674 205.159 359.699 205.209C359.723 205.259 359.738 205.313 359.742 205.369C359.746 205.424 359.738 205.48 359.72 205.533C359.703 205.586 359.675 205.634 359.638 205.676C359.601 205.718 359.557 205.753 359.507 205.777C359.498 205.781 359.488 205.786 359.479 205.79C359.06 205.961 358.607 206.092 358.131 206.105C357.651 206.126 357.174 206.021 356.746 205.801C356.333 205.582 355.975 205.275 355.696 204.9C355.426 204.532 355.206 204.136 355.114 203.654C355.104 203.582 355.122 203.508 355.164 203.448C355.206 203.388 355.269 203.347 355.34 203.331C355.412 203.316 355.486 203.328 355.549 203.365C355.612 203.402 355.659 203.462 355.68 203.532L355.68 203.54Z" fill="#954374"/>
<path d="M368.326 226.892C365.144 226.892 364.471 225.175 364.442 225.1C364.414 225.03 364.4 224.954 364.402 224.879C364.403 224.803 364.42 224.729 364.45 224.66C364.481 224.591 364.525 224.529 364.58 224.477C364.635 224.425 364.7 224.385 364.771 224.359C364.842 224.333 364.917 224.321 364.993 224.324C365.068 224.328 365.142 224.346 365.21 224.379C365.278 224.411 365.339 224.457 365.39 224.513C365.44 224.57 365.478 224.636 365.503 224.707C365.519 224.742 366.043 225.878 368.716 225.752C374.924 225.46 379.227 221.068 379.27 221.023C379.322 220.97 379.383 220.927 379.451 220.897C379.519 220.868 379.593 220.852 379.667 220.85C379.741 220.849 379.815 220.862 379.884 220.89C379.953 220.917 380.016 220.957 380.07 221.009C380.123 221.061 380.166 221.122 380.196 221.19C380.225 221.258 380.241 221.332 380.242 221.406C380.244 221.48 380.23 221.554 380.203 221.623C380.176 221.692 380.135 221.755 380.084 221.809C379.897 222.003 375.421 226.569 368.769 226.882C368.616 226.889 368.468 226.892 368.326 226.892Z" fill="#1AA9E8"/>
<path d="M375.465 201.878C374.865 202.025 374.006 201.762 374.069 200.537C374.186 198.228 378.149 194.687 378.052 191.417C377.932 187.447 370.475 186.563 365.349 184.56C359.83 182.404 359.905 176.029 361.284 173.944C362.804 171.646 365.49 172.401 366.621 173.532C367.752 174.663 368.271 175.919 369.261 175.888C370.404 175.853 369.98 173.626 371.711 173.626C373.466 173.626 374.984 176.862 376.189 178.198C378.251 180.483 389.07 184.05 389.62 191.818C390.376 202.469 379.772 210.764 378.593 210.764C376.586 210.764 376.692 208.442 377.549 207.977C378.408 207.512 380.023 206.531 379.614 204.288C379.205 202.045 376.801 201.55 375.465 201.878Z" fill="url(#paint46_linear_557_560)"/>
<path d="M377.567 201.975C378.513 202.329 379.25 203.088 379.548 204.034C379.585 203.984 379.611 203.926 379.622 203.864C379.634 203.802 379.631 203.739 379.615 203.678C378.936 201.247 375.393 199.087 373.491 197.927C373.089 197.682 372.742 197.471 372.538 197.326C372.446 197.264 372.333 197.24 372.224 197.26C372.115 197.281 372.018 197.342 371.954 197.433C371.89 197.524 371.864 197.635 371.882 197.745C371.9 197.854 371.959 197.953 372.048 198.019C372.276 198.18 372.617 198.387 373.05 198.651C374.289 199.407 376.262 200.61 377.567 201.975Z" fill="#9F36AD"/>
<path d="M310.841 228.859C311.985 228.635 313.282 232.373 313.848 234.494C314.413 236.615 314.823 240.205 316.899 242.577C318.796 244.745 324.865 246.724 324.865 246.724C324.865 246.724 325.524 250.259 323.921 252.238C322.32 254.218 319.955 254.118 319.955 254.118C319.955 254.118 312.988 247.195 310.065 245.169C307.144 243.143 305.353 240.409 304.905 238.453C304.425 236.36 304.081 235.319 304.316 233.009C304.443 231.756 304.936 230.092 304.936 230.092C304.936 230.092 309.275 236.977 310.396 238.759C311.574 238.524 311.009 235.272 310.867 233.952C310.726 232.633 309.677 229.086 310.841 228.859Z" fill="url(#paint47_linear_557_560)"/>
<path d="M372.137 230.615C377.084 229.758 379.989 231.986 381.538 235.342C383.235 239.019 382.881 243.567 380.242 246.206C377.603 248.844 360.609 269.04 351.657 268.784C341.666 268.498 319.574 255.887 319.351 254.594C319.127 253.302 323.251 246.151 323.829 246.359C324.407 246.567 347.25 255.197 350.644 254.283C354.038 253.369 368.698 231.211 372.137 230.615Z" fill="url(#paint48_linear_557_560)"/>
<path d="M319.345 255.149C319.214 255.15 319.086 255.105 318.985 255.021C318.884 254.938 318.816 254.821 318.794 254.691C318.533 253.191 322.194 246.907 323.247 246.023C323.51 245.802 323.769 245.736 324.02 245.827C324.137 245.868 324.236 245.947 324.303 246.05C324.371 246.154 324.402 246.276 324.393 246.399C324.385 246.523 324.336 246.639 324.254 246.732C324.173 246.825 324.063 246.888 323.942 246.913C323.069 247.645 319.783 253.514 319.908 254.499C319.947 254.804 319.737 255.097 319.433 255.142C319.404 255.147 319.374 255.149 319.345 255.149Z" fill="#1AA9E8"/>
<path d="M157.563 356.064C157.563 356.272 157.604 356.479 157.683 356.671C157.763 356.864 157.88 357.038 158.027 357.186C158.175 357.333 158.35 357.45 158.542 357.529C158.734 357.609 158.941 357.65 159.149 357.65H194.307C194.515 357.65 194.721 357.609 194.914 357.529C195.106 357.45 195.281 357.333 195.428 357.186C195.576 357.038 195.693 356.864 195.772 356.671C195.852 356.479 195.893 356.272 195.893 356.064V332.801C195.893 332.593 195.852 332.387 195.772 332.194C195.693 332.002 195.576 331.827 195.428 331.68C195.281 331.532 195.106 331.416 194.914 331.336C194.721 331.256 194.515 331.215 194.307 331.215H159.149C158.941 331.215 158.734 331.256 158.542 331.336C158.35 331.416 158.175 331.532 158.027 331.68C157.88 331.827 157.763 332.002 157.683 332.194C157.604 332.387 157.563 332.593 157.563 332.801V356.064Z" fill="url(#paint49_linear_557_560)"/>
<path d="M195.532 330.294H157.923C157.473 330.294 157.041 330.473 156.723 330.791C156.405 331.109 156.226 331.541 156.226 331.991V356.875C156.226 357.325 156.405 357.757 156.723 358.075C157.041 358.393 157.473 358.572 157.923 358.572H195.532C195.982 358.572 196.414 358.393 196.732 358.075C197.05 357.757 197.229 357.325 197.229 356.875V331.991C197.229 331.541 197.05 331.109 196.732 330.791C196.414 330.473 195.982 330.294 195.532 330.294ZM194.401 355.744H159.054V333.122H194.401V355.744Z" fill="url(#paint50_linear_557_560)"/>
<path d="M157.896 346.168H187.824V348.996H157.896V346.168Z" fill="#FDE1A7"/>
<path d="M183.94 339.487L187.824 344.026L180.078 344.047L183.94 339.487Z" fill="#00E2EC"/>
<path d="M173.626 344.047C174.885 344.047 175.906 343.026 175.906 341.767C175.906 340.508 174.885 339.487 173.626 339.487C172.366 339.487 171.345 340.508 171.345 341.767C171.345 343.026 172.366 344.047 173.626 344.047Z" fill="#F95FC3"/>
<path d="M124.465 440.928C125.507 443.538 129.966 444.631 133.707 445.517C137.739 446.472 140.611 447.022 140.447 448.628C140.258 450.466 131.492 451.078 125.13 450.89C118.767 450.701 114.158 449.951 113.216 449.245C112.22 448.498 112.264 441.746 112.499 440.239C112.734 438.731 124.465 440.928 124.465 440.928Z" fill="url(#paint51_linear_557_560)"/>
<path d="M117.824 287.68C116.976 290.791 114.808 297.954 114.054 311.528C113.299 325.101 114.242 366.764 114.242 376.944C114.242 387.124 111.792 405.221 111.603 417.475C111.414 429.729 111.171 441.252 111.886 441.699C113.465 442.689 122.513 443.396 125.553 441.699C126.084 441.404 131.021 398.623 134.414 380.714C136.652 368.898 145.348 304.74 145.913 295.314C146.479 285.889 117.824 287.68 117.824 287.68Z" fill="url(#paint52_linear_557_560)"/>
<path d="M119.797 438.833C115.601 438.833 112.359 437.995 111.175 437.397C111.107 437.365 111.046 437.319 110.996 437.263C110.946 437.207 110.908 437.141 110.884 437.07C110.859 436.998 110.849 436.923 110.855 436.848C110.86 436.773 110.88 436.699 110.914 436.632C110.948 436.565 110.995 436.505 111.052 436.456C111.11 436.407 111.176 436.37 111.248 436.348C111.32 436.325 111.395 436.317 111.47 436.324C111.545 436.331 111.618 436.352 111.685 436.388C113.326 437.216 119.246 438.527 126.145 437.027C126.292 436.995 126.445 437.023 126.571 437.104C126.697 437.185 126.786 437.313 126.818 437.46C126.849 437.606 126.822 437.76 126.74 437.886C126.659 438.012 126.531 438.101 126.385 438.132C124.22 438.6 122.011 438.835 119.797 438.833Z" fill="#CD218F"/>
<path d="M170.374 444.198C171.269 445.8 175.257 447.789 178.998 448.675C183.03 449.63 185.902 450.181 185.738 451.786C185.55 453.624 176.784 454.236 170.421 454.048C164.059 453.859 159.77 453.624 158.827 452.917C157.832 452.17 157.319 446.836 157.555 445.329C157.791 443.821 170.374 444.198 170.374 444.198Z" fill="url(#paint53_linear_557_560)"/>
<path d="M162.739 294.372C163.163 300.028 166.98 368.601 167.829 379.912C168.677 391.224 172.399 443.436 171.929 444.433C171.151 446.083 159.133 447.921 157.295 446.295C156.119 445.255 152.323 418.795 149.307 401.451C146.291 384.107 139.692 353.379 136.299 341.314C132.906 329.249 126.684 309.501 130.219 291.969C133.471 288.292 140.685 288.375 148.6 289.848C156.749 291.364 162.739 294.372 162.739 294.372Z" fill="url(#paint54_linear_557_560)"/>
<path d="M138.904 352.723C138.253 350.063 137.573 347.41 136.867 344.764C136.164 342.12 135.367 339.503 134.6 336.869C133.057 331.605 131.605 326.3 130.5 320.904C130.485 320.831 130.486 320.756 130.5 320.683C130.515 320.611 130.544 320.541 130.585 320.48C130.627 320.418 130.68 320.365 130.742 320.324C130.804 320.283 130.873 320.254 130.946 320.24C131.019 320.226 131.094 320.226 131.167 320.241C131.239 320.255 131.309 320.284 131.37 320.326C131.432 320.367 131.485 320.42 131.526 320.482C131.567 320.544 131.596 320.614 131.61 320.686C132.611 326.053 133.961 331.357 135.41 336.639C136.129 339.28 136.883 341.922 137.541 344.588C138.202 347.251 138.836 349.92 139.442 352.596C139.459 352.667 139.446 352.742 139.408 352.804C139.37 352.867 139.308 352.911 139.237 352.928C139.165 352.945 139.09 352.933 139.028 352.894C138.966 352.856 138.921 352.794 138.904 352.723Z" fill="#CD218F"/>
<path d="M131.048 321.325C130.973 321.325 130.898 321.31 130.828 321.28C129.174 320.582 125.424 317.878 124.503 316.343C124.465 316.279 124.44 316.209 124.429 316.135C124.418 316.062 124.421 315.987 124.439 315.915C124.476 315.769 124.568 315.644 124.697 315.567C124.826 315.49 124.98 315.467 125.125 315.503C125.271 315.54 125.396 315.632 125.473 315.761C126.214 316.996 129.662 319.56 131.269 320.239C131.389 320.29 131.487 320.381 131.548 320.496C131.608 320.612 131.627 320.744 131.601 320.872C131.575 321 131.506 321.114 131.406 321.197C131.305 321.279 131.179 321.325 131.048 321.325ZM160.69 442.988C158.47 442.988 156.674 442.746 155.905 442.458C155.835 442.432 155.772 442.393 155.717 442.342C155.663 442.292 155.619 442.231 155.589 442.163C155.558 442.096 155.541 442.023 155.538 441.948C155.535 441.874 155.548 441.8 155.574 441.731C155.6 441.661 155.639 441.597 155.69 441.543C155.74 441.489 155.801 441.445 155.869 441.414C155.936 441.383 156.009 441.366 156.084 441.364C156.158 441.361 156.232 441.373 156.301 441.399C158.114 442.077 166.638 442.44 171.536 439.373C171.599 439.333 171.669 439.307 171.743 439.294C171.816 439.282 171.891 439.284 171.963 439.301C172.036 439.318 172.104 439.348 172.164 439.391C172.225 439.435 172.276 439.489 172.316 439.552C172.355 439.615 172.382 439.685 172.394 439.758C172.406 439.832 172.404 439.907 172.387 439.979C172.371 440.051 172.34 440.12 172.297 440.18C172.254 440.241 172.199 440.292 172.136 440.331C168.881 442.37 164.242 442.988 160.69 442.988Z" fill="#CD218F"/>
<path d="M141.931 194.867C145.324 188.081 159.016 158.733 160.429 156.942C161.843 155.151 162.953 154.799 163.352 152.088C163.683 149.837 163.504 148.282 163.917 146.527C164.483 144.123 167.894 137.705 167.028 135.828C166.462 134.603 164.2 137.855 163.352 138.892C162.503 139.929 159.984 143.978 159.382 143.603C159.222 142.026 159.429 136.724 159.429 136.724C158.356 137.997 156.872 141.249 156.023 144.642C155.175 148.035 155.434 149.213 153.549 153.078C151.664 156.943 136.158 173.909 128.24 191.583C127.778 192.618 127.332 193.659 126.903 194.708C130.249 197.054 134.722 199.421 140.109 200.361C140.673 198.077 141.288 196.153 141.931 194.867Z" fill="url(#paint55_linear_557_560)"/>
<path d="M147.563 229.475C137.516 226.655 138.506 228.182 137.409 227.692C136.206 226.488 137.695 210.13 140.108 200.36C134.721 199.421 130.249 197.054 126.902 194.707C119.799 212.017 115.781 234.069 115.515 251.39C115.232 269.771 115.939 288.151 116.08 288.999C116.222 289.848 129.082 297.765 143.368 297.907C157.602 298.048 162.739 294.372 162.739 294.372C162.739 294.372 165.591 243.982 165.131 242.572C164.671 241.163 157.61 232.295 147.563 229.475Z" fill="url(#paint56_linear_557_560)"/>
<path d="M145.372 294.481C144.934 294.481 144.49 294.477 144.033 294.469C127.153 294.178 116.683 286.733 115.459 285.376C115.359 285.265 115.307 285.118 115.314 284.968C115.322 284.818 115.389 284.678 115.5 284.577C115.612 284.477 115.758 284.424 115.908 284.432C116.058 284.44 116.199 284.507 116.299 284.618C117.289 285.716 127.613 293.054 144.053 293.338C157.927 293.578 162.562 289.984 162.607 289.947C162.665 289.901 162.732 289.866 162.803 289.845C162.874 289.825 162.949 289.818 163.023 289.826C163.097 289.834 163.168 289.857 163.233 289.893C163.299 289.928 163.356 289.976 163.403 290.034C163.449 290.092 163.484 290.159 163.504 290.23C163.525 290.301 163.532 290.376 163.524 290.45C163.516 290.524 163.493 290.595 163.457 290.661C163.422 290.726 163.373 290.783 163.315 290.83C163.124 290.984 158.606 294.481 145.372 294.481ZM156.127 240.601C156.024 240.601 155.923 240.573 155.834 240.52C155.746 240.466 155.674 240.39 155.626 240.298C153.858 236.932 147.816 232.231 145.102 231.175C144.965 231.119 144.856 231.011 144.797 230.875C144.739 230.739 144.736 230.585 144.789 230.447C144.843 230.309 144.949 230.198 145.084 230.137C145.219 230.076 145.373 230.07 145.512 230.121C148.444 231.261 154.72 236.142 156.627 239.772C156.672 239.859 156.695 239.955 156.692 240.052C156.689 240.149 156.661 240.244 156.611 240.328C156.56 240.411 156.49 240.48 156.405 240.528C156.32 240.576 156.225 240.601 156.127 240.601ZM128.037 223.418C127.904 223.418 127.775 223.371 127.673 223.285C127.571 223.199 127.503 223.081 127.48 222.949C126.324 216.307 130.026 205.653 131.806 200.534C132.19 199.426 132.494 198.552 132.614 198.1C132.633 198.028 132.666 197.961 132.711 197.902C132.756 197.843 132.813 197.793 132.877 197.756C132.941 197.719 133.012 197.694 133.086 197.685C133.159 197.675 133.234 197.68 133.306 197.699C133.378 197.718 133.445 197.751 133.504 197.796C133.563 197.841 133.613 197.897 133.65 197.962C133.687 198.026 133.711 198.097 133.721 198.17C133.731 198.244 133.726 198.319 133.707 198.391C133.576 198.884 133.282 199.732 132.873 200.905C131.125 205.935 127.488 216.402 128.594 222.756C128.608 222.837 128.604 222.92 128.583 223C128.561 223.08 128.522 223.154 128.469 223.217C128.416 223.28 128.35 223.331 128.275 223.365C128.201 223.4 128.119 223.418 128.037 223.418Z" fill="#05C5DA"/>
<path d="M121.171 225.799C121.056 225.799 120.944 225.764 120.849 225.698C120.754 225.633 120.682 225.54 120.642 225.432C120.601 225.325 120.594 225.207 120.622 225.096C120.65 224.984 120.712 224.884 120.798 224.808C121.931 223.817 128.039 220.458 135.105 223.44C135.243 223.498 135.353 223.609 135.409 223.748C135.466 223.887 135.465 224.042 135.406 224.181C135.348 224.319 135.237 224.428 135.098 224.485C134.959 224.541 134.804 224.54 134.666 224.482C128.101 221.712 122.395 224.914 121.543 225.659C121.436 225.752 121.303 225.799 121.171 225.799Z" fill="#05C5DA"/>
<path d="M152.341 190.098C154.495 193.664 158.78 194.34 159.133 195.541C159.487 196.743 157.154 199.147 156.447 199.571C155.74 199.995 152.347 193.067 152.064 192.289C151.781 191.512 152.341 190.098 152.341 190.098Z" fill="url(#paint57_linear_557_560)"/>
<path d="M146.373 182.64C146.373 182.64 136.582 185.503 131.774 192.196C129.12 195.891 132.415 202.4 135.898 207.491C134.732 208.488 134.131 209.633 134.131 209.633L133.683 210.882C133.424 213.734 130.321 223.551 129.19 226.473C128.769 227.56 131.716 231.557 138.137 231.878C143.792 232.161 147.563 229.475 147.563 229.475L148.105 217.068C148.105 217.068 148.295 216.291 148.5 215.234C151.235 214.886 154.345 213.813 156.942 211.141C163.446 204.449 150.014 185.573 146.373 182.64Z" fill="url(#paint58_linear_557_560)"/>
<path d="M144.406 199.83C145.122 199.345 144.924 197.851 143.228 196.154C141.531 194.457 139.74 192.949 140.07 191.158C140.397 189.382 146.246 187.488 148.992 185.453C153.502 182.109 154.963 174.003 152.229 173.485C148.479 172.774 147.282 177.915 146.291 177.915C145.113 177.915 145.716 175.167 144.026 175.365C141.578 175.653 140.635 179.14 139.222 180.224C137.103 181.848 125.837 185.314 125.13 193.703C124.554 200.532 128.831 204.415 130.715 206.852C132.718 209.444 133.336 210.777 133.684 210.882C134.308 211.069 137.057 210.66 139.41 209.68C141.955 208.619 143.51 207.276 143.015 206.64C142.521 206.004 138.821 205.293 138.562 202.186C138.373 199.924 139.905 198.934 141.107 199.146C142.308 199.358 143.604 200.372 144.406 199.83Z" fill="url(#paint59_linear_557_560)"/>
<path d="M146.125 202.116C146.568 202.13 146.903 205.132 148.635 205.545C149.789 205.819 153.501 203.247 155.175 202.505C156.191 202.054 158.003 201.746 158.12 202.21C158.236 202.675 158.498 204.379 159.134 205.898C159.671 207.182 160.901 208.361 160.3 210.988C159.418 214.847 152.701 217.74 148.105 217.068C147.999 215.972 147.846 214.273 147.08 211.2C146.196 207.654 144.82 204.426 144.853 203.778C144.9 202.847 145.372 202.092 146.125 202.116Z" fill="url(#paint60_linear_557_560)"/>
<path d="M151.05 195.777C150.865 195.777 150.685 195.716 150.537 195.604C150.39 195.492 150.283 195.334 150.234 195.156C150.039 194.454 149.149 192.91 148.971 192.673C148.836 192.495 148.777 192.271 148.805 192.049C148.834 191.827 148.948 191.625 149.123 191.486C149.297 191.348 149.519 191.285 149.739 191.31C149.959 191.335 150.161 191.445 150.3 191.618C150.528 191.903 151.594 193.713 151.869 194.702C151.904 194.828 151.909 194.961 151.884 195.089C151.86 195.218 151.805 195.339 151.726 195.443C151.647 195.547 151.545 195.631 151.427 195.689C151.31 195.747 151.181 195.777 151.05 195.777Z" fill="#0090B2"/>
<path d="M155.475 205.014C155.575 205.182 155.882 205.388 156.157 205.497C156.443 205.615 156.752 205.672 157.048 205.639C157.649 205.586 158.155 205.098 158.467 204.491C158.493 204.439 158.539 204.399 158.595 204.379C158.65 204.36 158.711 204.363 158.764 204.388C158.817 204.413 158.859 204.457 158.88 204.512C158.901 204.567 158.899 204.628 158.876 204.682C158.727 205.033 158.531 205.381 158.245 205.674C157.951 205.981 157.572 206.192 157.156 206.28C156.736 206.367 156.304 206.326 155.908 206.204C155.511 206.066 155.143 205.923 154.793 205.518L154.787 205.511C154.747 205.466 154.718 205.414 154.699 205.357C154.681 205.301 154.675 205.241 154.682 205.181C154.688 205.122 154.707 205.065 154.737 205.013C154.767 204.962 154.808 204.917 154.856 204.882C154.904 204.847 154.959 204.823 155.018 204.811C155.076 204.798 155.136 204.798 155.194 204.811C155.253 204.823 155.308 204.848 155.356 204.883C155.404 204.918 155.445 204.962 155.475 205.014Z" fill="#F1D2F8"/>
<path d="M138.137 231.878C143.793 232.161 147.563 229.475 147.563 229.475L147.76 224.954C146.336 225.72 143.263 227.037 139.213 226.835C134.297 226.589 131.425 224.192 130.534 222.592C130 224.234 129.514 225.637 129.19 226.473C128.77 227.56 131.716 231.557 138.137 231.878Z" fill="url(#paint61_linear_557_560)"/>
<path d="M138.98 232.465C138.695 232.465 138.404 232.458 138.109 232.443C133.363 232.206 130.301 229.997 129.12 228.178C128.636 227.434 128.474 226.756 128.662 226.269C128.718 226.132 128.825 226.022 128.961 225.963C129.097 225.904 129.25 225.901 129.389 225.954C129.527 226.007 129.639 226.112 129.7 226.246C129.762 226.381 129.768 226.534 129.718 226.674C129.702 226.744 129.737 227.123 130.211 227.768C131.37 229.347 134.069 231.108 138.165 231.313C143.562 231.578 147.198 229.039 147.234 229.013C147.295 228.97 147.363 228.939 147.436 228.923C147.508 228.906 147.583 228.904 147.656 228.916C147.73 228.928 147.8 228.955 147.863 228.994C147.926 229.034 147.98 229.085 148.023 229.146C148.067 229.206 148.097 229.274 148.114 229.347C148.131 229.419 148.133 229.494 148.121 229.567C148.108 229.641 148.082 229.711 148.042 229.774C148.003 229.837 147.952 229.891 147.891 229.935C147.739 230.044 144.276 232.465 138.98 232.465Z" fill="#05C5DA"/>
<path d="M175.853 321.978C174.25 317.074 172.561 285.224 169.698 263.074C161.751 263.284 155.286 265.276 151.857 266.915C152.664 270.642 153.827 275.518 155.67 281.93C160.713 299.475 167.476 319.469 167.593 323.781C167.663 326.325 165.497 329.311 165.221 333.068C165.036 335.587 166.061 339.687 167.028 339.617C168.253 339.527 168.151 335.795 168.642 334.032C169.42 331.239 171.081 330.285 171.081 330.285C171.081 330.285 174.616 330.294 180.576 330.294C179.739 327.289 176.551 324.116 175.853 321.978Z" fill="url(#paint62_linear_557_560)"/>
<path d="M164.671 241.964C159.016 235.931 148.176 242.247 147.139 250.164C146.917 251.857 148.458 253.841 149.589 256.763C150.26 258.495 150.681 261.483 151.857 266.915C155.285 265.276 161.75 263.284 169.697 263.074C168.33 252.492 166.694 244.122 164.671 241.964Z" fill="url(#paint63_linear_557_560)"/>
<path d="M151.857 267.48C151.729 267.48 151.605 267.437 151.504 267.357C151.404 267.277 151.334 267.165 151.306 267.04C151.277 266.915 151.292 266.784 151.348 266.668C151.404 266.553 151.497 266.46 151.613 266.404C153.388 265.556 159.937 262.767 169.683 262.508C169.996 262.51 170.255 262.747 170.263 263.059C170.267 263.209 170.211 263.354 170.108 263.463C170.005 263.572 169.862 263.635 169.712 263.639C162.146 263.84 155.654 265.726 152.101 267.425C152.025 267.461 151.942 267.48 151.857 267.48ZM147.139 250.73C147.059 250.73 146.979 250.713 146.906 250.68C146.833 250.647 146.767 250.598 146.714 250.538C146.661 250.477 146.621 250.406 146.598 250.329C146.574 250.252 146.567 250.171 146.578 250.091C147.178 245.506 151.072 241.065 155.837 239.531C159.414 238.379 162.785 239.125 165.084 241.578C165.18 241.688 165.23 241.832 165.223 241.978C165.216 242.125 165.152 242.262 165.045 242.363C164.938 242.463 164.796 242.518 164.65 242.516C164.503 242.514 164.363 242.455 164.259 242.352C161.537 239.449 158.031 240.013 156.183 240.609C151.814 242.015 148.246 246.065 147.7 250.239C147.682 250.374 147.615 250.499 147.512 250.59C147.409 250.68 147.277 250.73 147.139 250.73Z" fill="#05C5DA"/>
<path d="M335.296 185.493L329.343 184.975L334.858 179.534L335.296 185.493Z" fill="#F95FC3"/>
<path d="M314.261 203.695C314.142 203.695 314.026 203.657 313.929 203.587C313.833 203.517 313.761 203.419 313.724 203.305C310.821 194.437 316.552 188.942 326.044 179.836C328.005 177.956 330.227 175.825 332.523 173.51C346.039 159.886 343.4 146.051 342.269 142.135C342.228 141.991 342.245 141.836 342.318 141.705C342.39 141.573 342.512 141.476 342.656 141.435C342.8 141.393 342.955 141.411 343.086 141.483C343.217 141.556 343.315 141.677 343.356 141.822C344.53 145.887 347.277 160.245 333.326 174.306C331.02 176.631 328.793 178.768 326.828 180.652C317.654 189.45 312.118 194.761 314.798 202.953C314.827 203.038 314.834 203.128 314.82 203.217C314.807 203.305 314.772 203.389 314.72 203.462C314.667 203.534 314.598 203.593 314.519 203.634C314.439 203.674 314.351 203.695 314.261 203.695Z" fill="#1AA9E8"/>
<path d="M341.103 177.232L339.096 175.241C344.232 170.063 347.529 164.297 348.897 158.102L351.658 158.712C350.174 165.437 346.623 171.669 341.103 177.232Z" fill="#00E2EC"/>
<path d="M342.813 144.217C344.049 144.217 345.052 143.215 345.052 141.979C345.052 140.742 344.049 139.74 342.813 139.74C341.577 139.74 340.575 140.742 340.575 141.979C340.575 143.215 341.577 144.217 342.813 144.217Z" fill="#FDE1A7"/>
<path d="M309.169 205.957C309.078 205.957 308.989 205.935 308.908 205.892C308.742 205.805 304.857 203.684 305.783 197.205C306.308 193.534 308.701 190.445 311.234 187.176C314.529 182.924 317.936 178.527 317.467 172.444C317.286 170.087 316.077 168.016 313.872 166.287C302.064 157.026 265.61 159.52 256.348 161.051C256.274 161.063 256.199 161.061 256.127 161.044C256.055 161.027 255.986 160.996 255.926 160.953C255.866 160.91 255.814 160.855 255.775 160.792C255.736 160.729 255.71 160.658 255.698 160.585C255.673 160.437 255.709 160.285 255.796 160.163C255.883 160.041 256.015 159.959 256.163 159.935C265.534 158.386 302.464 155.903 314.57 165.397C317.034 167.33 318.389 169.672 318.595 172.358C319.097 178.876 315.395 183.653 312.128 187.868C309.689 191.016 307.385 193.99 306.903 197.365C306.095 203.018 309.3 204.819 309.436 204.893C309.71 205.041 309.815 205.383 309.668 205.657C309.62 205.748 309.548 205.824 309.46 205.877C309.373 205.929 309.272 205.957 309.169 205.957Z" fill="#1AA9E8"/>
<path d="M299.315 167.658C293.906 166.769 287.454 166.312 280.137 166.302L280.141 163.474C287.61 163.485 294.215 163.953 299.773 164.867L299.315 167.658Z" fill="#C7A0F6"/>
<path d="M256.255 162.731C257.491 162.731 258.493 161.729 258.493 160.493C258.493 159.257 257.491 158.254 256.255 158.254C255.019 158.254 254.016 159.257 254.016 160.493C254.016 161.729 255.019 162.731 256.255 162.731Z" fill="#FDE1A7"/>
<path d="M94.277 212.631L92.2297 218.245L88.4082 211.508L94.277 212.631Z" fill="#F95FC3"/>
<path d="M152.867 259.556C152.42 259.556 151.974 259.553 151.527 259.546C128.927 259.204 108.81 250.413 94.8827 234.792C78.5014 216.417 70.7255 193.129 74.0815 172.495C76.6017 157.003 85.1495 144.37 98.151 136.923C98.2812 136.848 98.4357 136.828 98.5805 136.868C98.7253 136.907 98.8485 137.002 98.923 137.133C98.9976 137.263 99.0173 137.417 98.978 137.562C98.9386 137.707 98.8434 137.83 98.7132 137.905C86.0131 145.179 77.6621 157.528 75.198 172.677C71.8957 192.978 79.5697 215.917 95.7271 234.039C124.829 266.682 177.765 266.745 216.242 234.181C222.898 228.548 228.573 222.738 234.061 217.12C247.116 203.757 258.391 192.215 275.496 191.786C291.474 191.385 299.41 199.635 303.256 206.627C303.328 206.759 303.345 206.914 303.304 207.058C303.262 207.202 303.165 207.323 303.033 207.395C302.902 207.468 302.747 207.485 302.603 207.443C302.459 207.401 302.337 207.304 302.265 207.173C298.57 200.456 290.939 192.533 275.525 192.916C258.879 193.334 247.753 204.723 234.871 217.91C229.364 223.547 223.67 229.376 216.973 235.043C198.261 250.881 175.545 259.556 152.867 259.556Z" fill="#1AA9E8"/>
<path d="M86.2817 206.385C83.6315 198.848 82.221 191.23 82.0898 183.741L84.917 183.691C85.0431 190.877 86.3999 198.196 88.9494 205.447L86.2817 206.385Z" fill="#C7A0F6"/>
<path d="M173.097 252.776L172.479 250.016C179.09 248.536 185.631 246.311 191.921 243.401L193.108 245.967C186.637 248.962 179.904 251.253 173.097 252.776Z" fill="#00E2EC"/>
<path d="M98.4327 139.653C99.669 139.653 100.671 138.65 100.671 137.414C100.671 136.178 99.669 135.176 98.4327 135.176C97.1964 135.176 96.1942 136.178 96.1942 137.414C96.1942 138.65 97.1964 139.653 98.4327 139.653Z" fill="#FDE1A7"/>
<path d="M287.095 296.775L281.223 297.884L285.062 291.155L287.095 296.775Z" fill="#00E2EC"/>
<path d="M243.879 309.851C243.098 309.851 242.346 309.83 241.627 309.789C241.553 309.785 241.48 309.766 241.413 309.734C241.346 309.702 241.286 309.657 241.237 309.601C241.187 309.546 241.149 309.481 241.125 309.411C241.1 309.341 241.09 309.267 241.094 309.193C241.104 309.043 241.172 308.904 241.284 308.805C241.395 308.705 241.541 308.653 241.691 308.66C252.597 309.279 271.352 305.304 278.318 291.85C281.435 285.828 282.31 277.194 283.234 268.053C284.768 252.903 286.354 237.239 298.13 229.983C298.258 229.904 298.411 229.88 298.557 229.914C298.703 229.949 298.829 230.04 298.908 230.168C298.987 230.296 299.011 230.45 298.977 230.596C298.942 230.741 298.851 230.868 298.723 230.946C287.423 237.909 285.866 253.291 284.36 268.167C283.424 277.419 282.539 286.158 279.322 292.371C272.572 305.407 255.254 309.851 243.879 309.851Z" fill="#1AA9E8"/>
<path d="M289.02 285.83L286.268 285.177C287.423 280.316 287.986 274.745 288.584 268.845C288.752 267.187 288.921 265.515 289.105 263.845L291.917 264.156C291.736 265.813 291.563 267.471 291.397 269.13C290.791 275.125 290.217 280.786 289.02 285.83Z" fill="#F95FC3"/>
<path d="M241.658 311.463C242.894 311.463 243.896 310.461 243.896 309.225C243.896 307.989 242.894 306.986 241.658 306.986C240.422 306.986 239.419 307.989 239.419 309.225C239.419 310.461 240.422 311.463 241.658 311.463Z" fill="#C7A0F6"/>
<defs>
<linearGradient id="paint0_linear_557_560" x1="114.113" y1="86.6946" x2="377.787" y2="350.368" gradientUnits="userSpaceOnUse">
<stop stop-color="#DBEFFF"/>
<stop offset="1" stop-color="#F7EBFF"/>
</linearGradient>
<linearGradient id="paint1_linear_557_560" x1="354.377" y1="447.902" x2="354.377" y2="422.386" gradientUnits="userSpaceOnUse">
<stop stop-color="#F7EBFF"/>
<stop offset="1" stop-color="#DBEFFF"/>
</linearGradient>
<linearGradient id="paint2_linear_557_560" x1="147.852" y1="461.781" x2="147.852" y2="438.351" gradientUnits="userSpaceOnUse">
<stop stop-color="#F7EBFF"/>
<stop offset="1" stop-color="#DBEFFF"/>
</linearGradient>
<linearGradient id="paint3_linear_557_560" x1="219.631" y1="281.625" x2="233.145" y2="295.138" gradientUnits="userSpaceOnUse">
<stop stop-color="#FF57BD"/>
<stop offset="1" stop-color="#FE6A77"/>
</linearGradient>
<linearGradient id="paint4_linear_557_560" x1="219.631" y1="302.47" x2="233.145" y2="315.984" gradientUnits="userSpaceOnUse">
<stop stop-color="#FF57BD"/>
<stop offset="1" stop-color="#FE6A77"/>
</linearGradient>
<linearGradient id="paint5_linear_557_560" x1="219.631" y1="323.317" x2="233.145" y2="336.83" gradientUnits="userSpaceOnUse">
<stop stop-color="#FF57BD"/>
<stop offset="1" stop-color="#FE6A77"/>
</linearGradient>
<linearGradient id="paint6_linear_557_560" x1="198.882" y1="200.791" x2="274.419" y2="276.328" gradientUnits="userSpaceOnUse">
<stop stop-color="#706AED"/>
<stop offset="1" stop-color="#271068"/>
</linearGradient>
<linearGradient id="paint7_linear_557_560" x1="204.837" y1="210.434" x2="234.766" y2="210.434" gradientUnits="userSpaceOnUse">
<stop stop-color="white"/>
<stop offset="1" stop-color="#F1D1F8"/>
</linearGradient>
<linearGradient id="paint8_linear_557_560" x1="263.938" y1="266.377" x2="263.938" y2="211.519" gradientUnits="userSpaceOnUse">
<stop stop-color="#FDE1A7"/>
<stop offset="1" stop-color="#F9A144"/>
</linearGradient>
<linearGradient id="paint9_linear_557_560" x1="259.414" y1="222.311" x2="268.462" y2="222.311" gradientUnits="userSpaceOnUse">
<stop stop-color="#00E2EC"/>
<stop offset="1" stop-color="#0090B2"/>
</linearGradient>
<linearGradient id="paint10_linear_557_560" x1="236.65" y1="266.377" x2="236.65" y2="223.537" gradientUnits="userSpaceOnUse">
<stop stop-color="#1AA9E8"/>
<stop offset="0.422" stop-color="#3D80EF"/>
<stop offset="0.791" stop-color="#5662F4"/>
<stop offset="1" stop-color="#5F57F6"/>
</linearGradient>
<linearGradient id="paint11_linear_557_560" x1="232.125" y1="236.144" x2="241.174" y2="236.144" gradientUnits="userSpaceOnUse">
<stop stop-color="#00E2EC"/>
<stop offset="1" stop-color="#0090B2"/>
</linearGradient>
<linearGradient id="paint12_linear_557_560" x1="250.294" y1="266.377" x2="250.294" y2="231.455" gradientUnits="userSpaceOnUse">
<stop stop-color="#FF57BD"/>
<stop offset="1" stop-color="#FE6A77"/>
</linearGradient>
<linearGradient id="paint13_linear_557_560" x1="245.77" y1="240.103" x2="254.818" y2="240.103" gradientUnits="userSpaceOnUse">
<stop stop-color="#00E2EC"/>
<stop offset="1" stop-color="#0090B2"/>
</linearGradient>
<linearGradient id="paint14_linear_557_560" x1="223.006" y1="266.377" x2="223.006" y2="215.902" gradientUnits="userSpaceOnUse">
<stop stop-color="#C7A0F6"/>
<stop offset="1" stop-color="#FF57BD"/>
</linearGradient>
<linearGradient id="paint15_linear_557_560" x1="218.481" y1="225.209" x2="227.53" y2="225.209" gradientUnits="userSpaceOnUse">
<stop stop-color="#00E2EC"/>
<stop offset="1" stop-color="#0090B2"/>
</linearGradient>
<linearGradient id="paint16_linear_557_560" x1="209.362" y1="266.377" x2="209.362" y2="240.786" gradientUnits="userSpaceOnUse">
<stop stop-color="#FDE1A7"/>
<stop offset="1" stop-color="#F9A144"/>
</linearGradient>
<linearGradient id="paint17_linear_557_560" x1="204.837" y1="248.492" x2="213.886" y2="248.492" gradientUnits="userSpaceOnUse">
<stop stop-color="#00E2EC"/>
<stop offset="1" stop-color="#0090B2"/>
</linearGradient>
<linearGradient id="paint18_linear_557_560" x1="97.771" y1="88.0152" x2="161.679" y2="151.923" gradientUnits="userSpaceOnUse">
<stop stop-color="#00E2EC"/>
<stop offset="1" stop-color="#0090B2"/>
</linearGradient>
<linearGradient id="paint19_linear_557_560" x1="133.33" y1="103.78" x2="164.011" y2="103.78" gradientUnits="userSpaceOnUse">
<stop stop-color="white"/>
<stop offset="1" stop-color="#F1D1F8"/>
</linearGradient>
<linearGradient id="paint20_linear_557_560" x1="159.298" y1="135.173" x2="189.462" y2="135.173" gradientUnits="userSpaceOnUse">
<stop stop-color="#FDE1A7"/>
<stop offset="1" stop-color="#F9A144"/>
</linearGradient>
<linearGradient id="paint21_linear_557_560" x1="182.391" y1="100.888" x2="256.814" y2="100.888" gradientUnits="userSpaceOnUse">
<stop stop-color="#5A55F8"/>
<stop offset="1" stop-color="#8C6AE2"/>
</linearGradient>
<linearGradient id="paint22_linear_557_560" x1="171.87" y1="152.587" x2="269.393" y2="152.587" gradientUnits="userSpaceOnUse">
<stop stop-color="#FF57BD"/>
<stop offset="1" stop-color="#FE6A77"/>
</linearGradient>
<linearGradient id="paint23_linear_557_560" x1="192.815" y1="152.041" x2="231.958" y2="152.041" gradientUnits="userSpaceOnUse">
<stop stop-color="#C7A0F6"/>
<stop offset="1" stop-color="#FF57BD"/>
</linearGradient>
<linearGradient id="paint24_linear_557_560" x1="214.346" y1="137.181" x2="237.345" y2="137.181" gradientUnits="userSpaceOnUse">
<stop stop-color="#994574"/>
<stop offset="1" stop-color="#43256F"/>
</linearGradient>
<linearGradient id="paint25_linear_557_560" x1="198.093" y1="124.27" x2="214.356" y2="140.532" gradientUnits="userSpaceOnUse">
<stop stop-color="#1AA9E8"/>
<stop offset="0.422" stop-color="#3D80EF"/>
<stop offset="0.791" stop-color="#5662F4"/>
<stop offset="1" stop-color="#5F57F6"/>
</linearGradient>
<linearGradient id="paint26_linear_557_560" x1="292.662" y1="60.2379" x2="392.966" y2="160.542" gradientUnits="userSpaceOnUse">
<stop stop-color="#C91C91"/>
<stop offset="1" stop-color="#FE6A77"/>
</linearGradient>
<linearGradient id="paint27_linear_557_560" x1="290.593" y1="93.9767" x2="329.295" y2="93.9767" gradientUnits="userSpaceOnUse">
<stop stop-color="white"/>
<stop offset="1" stop-color="#F1D1F8"/>
</linearGradient>
<linearGradient id="paint28_linear_557_560" x1="346.112" y1="135.639" x2="346.112" y2="83.8877" gradientUnits="userSpaceOnUse">
<stop stop-color="#994574"/>
<stop offset="1" stop-color="#9F36AD"/>
</linearGradient>
<linearGradient id="paint29_linear_557_560" x1="290.593" y1="113.112" x2="395.033" y2="113.112" gradientUnits="userSpaceOnUse">
<stop stop-color="#FE6A77"/>
<stop offset="1" stop-color="#FF57BD"/>
</linearGradient>
<linearGradient id="paint30_linear_557_560" x1="213.966" y1="69.7997" x2="263.923" y2="69.7997" gradientUnits="userSpaceOnUse">
<stop stop-color="#FDE1A7"/>
<stop offset="1" stop-color="#F9A144"/>
</linearGradient>
<linearGradient id="paint31_linear_557_560" x1="296.961" y1="222.739" x2="340.833" y2="222.739" gradientUnits="userSpaceOnUse">
<stop stop-color="#00E2EC"/>
<stop offset="1" stop-color="#0090B2"/>
</linearGradient>
<linearGradient id="paint32_linear_557_560" x1="303.556" y1="205.963" x2="333.815" y2="236.222" gradientUnits="userSpaceOnUse">
<stop stop-color="#994574"/>
<stop offset="1" stop-color="#43256F"/>
</linearGradient>
<linearGradient id="paint33_linear_557_560" x1="338.62" y1="387.445" x2="361.384" y2="387.445" gradientUnits="userSpaceOnUse">
<stop stop-color="#F4BEA3"/>
<stop offset="1" stop-color="#E8878E"/>
</linearGradient>
<linearGradient id="paint34_linear_557_560" x1="330.678" y1="431.836" x2="356.814" y2="431.836" gradientUnits="userSpaceOnUse">
<stop stop-color="#706AED"/>
<stop offset="1" stop-color="#271068"/>
</linearGradient>
<linearGradient id="paint35_linear_557_560" x1="371.429" y1="388.911" x2="392.98" y2="388.911" gradientUnits="userSpaceOnUse">
<stop stop-color="#F4BEA3"/>
<stop offset="1" stop-color="#E8878E"/>
</linearGradient>
<linearGradient id="paint36_linear_557_560" x1="367.046" y1="432.288" x2="393.196" y2="432.288" gradientUnits="userSpaceOnUse">
<stop stop-color="#706AED"/>
<stop offset="1" stop-color="#271068"/>
</linearGradient>
<linearGradient id="paint37_linear_557_560" x1="339.37" y1="293.864" x2="396.771" y2="351.265" gradientUnits="userSpaceOnUse">
<stop stop-color="#FF57BD"/>
<stop offset="1" stop-color="#FE6A77"/>
</linearGradient>
<linearGradient id="paint38_linear_557_560" x1="328.269" y1="221.111" x2="334.627" y2="221.111" gradientUnits="userSpaceOnUse">
<stop stop-color="#C16846"/>
<stop offset="0.265" stop-color="#D27565"/>
<stop offset="0.531" stop-color="#DE7F7B"/>
<stop offset="0.781" stop-color="#E58589"/>
<stop offset="1" stop-color="#E8878E"/>
</linearGradient>
<linearGradient id="paint39_linear_557_560" x1="343.572" y1="242.154" x2="365.016" y2="242.154" gradientUnits="userSpaceOnUse">
<stop stop-color="#FDE1A7"/>
<stop offset="1" stop-color="#F9A144"/>
</linearGradient>
<linearGradient id="paint40_linear_557_560" x1="323.818" y1="225.405" x2="351.493" y2="225.405" gradientUnits="userSpaceOnUse">
<stop stop-color="#F4BEA3"/>
<stop offset="1" stop-color="#E8878E"/>
</linearGradient>
<linearGradient id="paint41_linear_557_560" x1="349.702" y1="251.5" x2="386.481" y2="251.5" gradientUnits="userSpaceOnUse">
<stop stop-color="#FDE1A7"/>
<stop offset="1" stop-color="#F9A144"/>
</linearGradient>
<linearGradient id="paint42_linear_557_560" x1="384.096" y1="194.953" x2="417.924" y2="228.781" gradientUnits="userSpaceOnUse">
<stop stop-color="#5A55F8"/>
<stop offset="1" stop-color="#8C6AE2"/>
</linearGradient>
<linearGradient id="paint43_linear_557_560" x1="364.972" y1="216.068" x2="379.677" y2="216.068" gradientUnits="userSpaceOnUse">
<stop stop-color="#F4BEA3"/>
<stop offset="1" stop-color="#E8878E"/>
</linearGradient>
<linearGradient id="paint44_linear_557_560" x1="355.112" y1="198.246" x2="381.266" y2="198.246" gradientUnits="userSpaceOnUse">
<stop stop-color="#F4BEA3"/>
<stop offset="1" stop-color="#E8878E"/>
</linearGradient>
<linearGradient id="paint45_linear_557_560" x1="354.64" y1="196.119" x2="363.668" y2="196.119" gradientUnits="userSpaceOnUse">
<stop stop-color="#FF57BD"/>
<stop offset="1" stop-color="#EC9895"/>
</linearGradient>
<linearGradient id="paint46_linear_557_560" x1="360.499" y1="191.607" x2="389.659" y2="191.607" gradientUnits="userSpaceOnUse">
<stop stop-color="#5A55F8"/>
<stop offset="1" stop-color="#8C6AE2"/>
</linearGradient>
<linearGradient id="paint47_linear_557_560" x1="304.241" y1="241.484" x2="324.999" y2="241.484" gradientUnits="userSpaceOnUse">
<stop stop-color="#F4BEA3"/>
<stop offset="1" stop-color="#E8878E"/>
</linearGradient>
<linearGradient id="paint48_linear_557_560" x1="319.342" y1="249.609" x2="382.575" y2="249.609" gradientUnits="userSpaceOnUse">
<stop stop-color="#FDE1A7"/>
<stop offset="1" stop-color="#F9A144"/>
</linearGradient>
<linearGradient id="paint49_linear_557_560" x1="161.001" y1="328.707" x2="192.455" y2="360.16" gradientUnits="userSpaceOnUse">
<stop stop-color="#00E2EC"/>
<stop offset="1" stop-color="#0090B2"/>
</linearGradient>
<linearGradient id="paint50_linear_557_560" x1="159.905" y1="327.609" x2="193.551" y2="361.257" gradientUnits="userSpaceOnUse">
<stop stop-color="#706AED"/>
<stop offset="1" stop-color="#271068"/>
</linearGradient>
<linearGradient id="paint51_linear_557_560" x1="115.427" y1="437.229" x2="133.744" y2="455.546" gradientUnits="userSpaceOnUse">
<stop stop-color="#706AED"/>
<stop offset="1" stop-color="#271068"/>
</linearGradient>
<linearGradient id="paint52_linear_557_560" x1="83.4511" y1="322.053" x2="164.326" y2="402.928" gradientUnits="userSpaceOnUse">
<stop stop-color="#994574"/>
<stop offset="1" stop-color="#43256F"/>
</linearGradient>
<linearGradient id="paint53_linear_557_560" x1="161.514" y1="441.281" x2="178.986" y2="458.753" gradientUnits="userSpaceOnUse">
<stop stop-color="#706AED"/>
<stop offset="1" stop-color="#271068"/>
</linearGradient>
<linearGradient id="paint54_linear_557_560" x1="105.927" y1="316.243" x2="203.049" y2="413.366" gradientUnits="userSpaceOnUse">
<stop stop-color="#994574"/>
<stop offset="1" stop-color="#43256F"/>
</linearGradient>
<linearGradient id="paint55_linear_557_560" x1="126.903" y1="167.958" x2="167.168" y2="167.958" gradientUnits="userSpaceOnUse">
<stop stop-color="#F4BEA3"/>
<stop offset="1" stop-color="#E8878E"/>
</linearGradient>
<linearGradient id="paint56_linear_557_560" x1="102.496" y1="219.114" x2="170.247" y2="286.865" gradientUnits="userSpaceOnUse">
<stop stop-color="#1AA9E8"/>
<stop offset="0.422" stop-color="#3D80EF"/>
<stop offset="0.791" stop-color="#5662F4"/>
<stop offset="1" stop-color="#5F57F6"/>
</linearGradient>
<linearGradient id="paint57_linear_557_560" x1="151.984" y1="194.844" x2="159.17" y2="194.844" gradientUnits="userSpaceOnUse">
<stop stop-color="#EC9895"/>
<stop offset="1" stop-color="#FF57BD"/>
</linearGradient>
<linearGradient id="paint58_linear_557_560" x1="128.159" y1="195.485" x2="154.856" y2="222.182" gradientUnits="userSpaceOnUse">
<stop stop-color="#F4BEA3"/>
<stop offset="1" stop-color="#E8878E"/>
</linearGradient>
<linearGradient id="paint59_linear_557_560" x1="125.077" y1="192.172" x2="153.608" y2="192.172" gradientUnits="userSpaceOnUse">
<stop stop-color="#CB2090"/>
<stop offset="1" stop-color="#43256F"/>
</linearGradient>
<linearGradient id="paint60_linear_557_560" x1="145.641" y1="202.148" x2="157.912" y2="214.419" gradientUnits="userSpaceOnUse">
<stop stop-color="#CB2090"/>
<stop offset="1" stop-color="#43256F"/>
</linearGradient>
<linearGradient id="paint61_linear_557_560" x1="129.151" y1="227.246" x2="147.76" y2="227.246" gradientUnits="userSpaceOnUse">
<stop stop-color="#1AA9E8"/>
<stop offset="0.422" stop-color="#3D80EF"/>
<stop offset="0.791" stop-color="#5662F4"/>
<stop offset="1" stop-color="#5F57F6"/>
</linearGradient>
<linearGradient id="paint62_linear_557_560" x1="151.857" y1="301.346" x2="180.575" y2="301.346" gradientUnits="userSpaceOnUse">
<stop stop-color="#F4BEA3"/>
<stop offset="1" stop-color="#E8878E"/>
</linearGradient>
<linearGradient id="paint63_linear_557_560" x1="147.117" y1="253.24" x2="169.698" y2="253.24" gradientUnits="userSpaceOnUse">
<stop stop-color="#1AA9E8"/>
<stop offset="0.422" stop-color="#3D80EF"/>
<stop offset="0.791" stop-color="#5662F4"/>
<stop offset="1" stop-color="#5F57F6"/>
</linearGradient>
</defs>
</svg>
